<?xml version="1.0" encoding="UTF-8"?>
<!DOCTYPE svg PUBLIC "-//W3C//DTD SVG 1.1//EN" "http://www.w3.org/Graphics/SVG/1.1/DTD/svg11.dtd">
<svg version="1.1" xmlns="http://www.w3.org/2000/svg" xmlns:xlink="http://www.w3.org/1999/xlink" x="0" y="0" width="154.057" height="40" viewBox="0, 0, 154.057, 40">
  <g id="Layer_1" transform="translate(-20, -156.06)">
    <path d="M20,156.06 L174.057,156.06 L174.057,196.06 L20,196.06 z" fill="#1A1919"/>
    <path d="M39.31,164.616 C38.155,165.021 37.309,165.369 37.309,167.579 L37.309,168.64 L38.002,168.502 L38.002,167.585 C37.985,166.086 38.374,165.773 39.385,165.336 C39.379,165.053 39.355,164.813 39.31,164.616" fill="#FFFFFE"/>
    <path d="M41.325,164.142 C41.372,164.357 41.407,164.59 41.432,164.84 C43.242,164.58 43.208,165.327 43.208,166.886 L43.208,167.46 L43.894,167.32 L43.894,166.886 C43.894,164.464 43.514,163.816 41.325,164.142" fill="#FFFFFE"/>
    <path d="M34.19,169.265 L34.19,166.081 C34.168,164.107 35.187,163.502 37.067,163.063 C39.9,162.399 40.08,164.224 40.08,165.386 L40.08,168.086 L40.775,167.947 L40.775,165.446 C40.768,163.247 40.082,161.601 36.93,162.315 C35.232,162.7 33.496,163.133 33.496,166.014 L33.496,169.403 L34.19,169.265" fill="#FFFFFE"/>
    <path d="M42.488,177.784 L36.984,177.784 L36.984,173.776 L42.488,172.996 L42.488,177.784 z M42.488,183.086 L36.984,182.304 L36.984,178.102 L42.488,178.102 L42.488,183.086 z M36.668,177.784 L32.398,177.784 L32.398,174.405 L36.668,173.809 L36.668,177.784 z M36.668,182.272 L32.398,181.676 L32.398,178.102 L36.668,178.102 L36.668,182.272 z M47.36,167.466 L28.299,171.276 L28.299,185.141 L47.36,188.954 L51.171,187.567 L51.171,168.852 L47.36,167.466" fill="#FFFFFE"/>
    <path d="M61.3,166.188 L59.186,166.188 L59.186,173.852 L61.212,173.852 C62.022,173.852 62.745,173.688 63.38,173.37 C64.004,173.042 64.497,172.582 64.836,171.991 C65.176,171.389 65.351,170.699 65.351,169.921 C65.351,167.436 64.004,166.188 61.3,166.188 z M63.577,172.232 C63.019,172.768 62.23,173.042 61.223,173.042 L60.084,173.042 L60.084,166.998 L61.278,166.998 C63.369,166.998 64.409,167.983 64.409,169.943 C64.409,170.929 64.136,171.695 63.577,172.232 z" fill="#FFFFFE"/>
    <path d="M70.924,169.013 C70.464,168.498 69.829,168.246 69.019,168.246 C68.143,168.246 67.464,168.509 66.971,169.035 C66.479,169.56 66.227,170.272 66.227,171.181 C66.227,172.024 66.468,172.692 66.949,173.206 C67.431,173.721 68.077,173.984 68.888,173.984 C69.72,173.984 70.377,173.721 70.869,173.195 C71.362,172.659 71.614,171.958 71.614,171.093 C71.614,170.206 71.384,169.516 70.924,169.013 z M70.267,172.692 C69.961,173.053 69.523,173.239 68.953,173.239 C68.395,173.239 67.946,173.053 67.617,172.681 C67.289,172.319 67.125,171.805 67.125,171.148 C67.125,170.458 67.289,169.932 67.617,169.56 C67.946,169.177 68.395,168.991 68.953,168.991 C69.523,168.991 69.95,169.177 70.256,169.538 C70.563,169.91 70.716,170.436 70.716,171.126 C70.716,171.805 70.563,172.33 70.267,172.692 z" fill="#FFFFFE"/>
    <path d="M78.806,168.378 L77.69,172.505 C77.635,172.659 77.613,172.823 77.602,172.998 L77.558,172.998 C77.547,172.812 77.514,172.648 77.482,172.505 L76.343,168.378 L75.544,168.378 L74.284,172.484 C74.23,172.681 74.186,172.856 74.186,172.987 L74.142,172.987 C74.131,172.801 74.098,172.637 74.065,172.495 L72.938,168.378 L72.018,168.378 L73.671,173.852 L74.547,173.852 L75.774,169.921 C75.839,169.724 75.872,169.56 75.883,169.429 L75.905,169.429 C75.927,169.626 75.949,169.801 75.993,169.932 L77.12,173.852 L78.029,173.852 L79.671,168.378 z" fill="#FFFFFE"/>
    <path d="M85.135,170.502 C85.135,169.779 84.982,169.221 84.664,168.837 C84.347,168.443 83.887,168.246 83.285,168.246 C82.496,168.246 81.894,168.597 81.489,169.286 L81.467,169.286 L81.467,168.378 L80.591,168.378 L80.591,173.852 L81.467,173.852 L81.467,170.732 C81.467,170.228 81.61,169.801 81.905,169.483 C82.19,169.155 82.551,168.991 82.989,168.991 C83.832,168.991 84.259,169.571 84.259,170.732 L84.259,173.852 L85.135,173.852 z" fill="#FFFFFE"/>
    <path d="M87.482,165.75 L86.606,165.75 L86.606,173.852 L87.482,173.852 z" fill="#FFFFFE"/>
    <path d="M93.39,169.013 C92.93,168.498 92.295,168.246 91.485,168.246 C90.609,168.246 89.93,168.509 89.437,169.035 C88.944,169.56 88.693,170.272 88.693,171.181 C88.693,172.024 88.934,172.692 89.415,173.206 C89.897,173.721 90.543,173.984 91.353,173.984 C92.185,173.984 92.842,173.721 93.335,173.195 C93.828,172.659 94.08,171.958 94.08,171.093 C94.08,170.206 93.85,169.516 93.39,169.013 z M92.733,172.692 C92.426,173.053 91.988,173.239 91.419,173.239 C90.861,173.239 90.412,173.053 90.083,172.681 C89.755,172.319 89.59,171.805 89.59,171.148 C89.59,170.458 89.755,169.932 90.083,169.56 C90.412,169.177 90.861,168.991 91.419,168.991 C91.988,168.991 92.415,169.177 92.722,169.538 C93.029,169.91 93.182,170.436 93.182,171.126 C93.182,171.805 93.029,172.33 92.733,172.692 z" fill="#FFFFFE"/>
    <path d="M99.206,170.294 C99.206,168.925 98.56,168.246 97.279,168.246 C96.972,168.246 96.633,168.301 96.239,168.41 C95.856,168.52 95.582,168.64 95.418,168.761 L95.418,169.659 C95.954,169.21 96.545,168.991 97.202,168.991 C97.958,168.991 98.33,169.451 98.33,170.381 L96.688,170.611 C95.483,170.786 94.881,171.378 94.881,172.396 C94.881,172.878 95.034,173.272 95.352,173.557 C95.67,173.841 96.097,173.984 96.622,173.984 C97.367,173.984 97.925,173.655 98.308,172.998 L98.33,172.998 L98.33,173.852 L99.206,173.852 z M98.33,171.63 C98.33,172.089 98.188,172.473 97.903,172.779 C97.618,173.086 97.257,173.239 96.83,173.239 C96.524,173.239 96.272,173.151 96.075,172.987 C95.878,172.823 95.779,172.604 95.779,172.33 C95.779,171.991 95.867,171.75 96.053,171.597 C96.239,171.443 96.556,171.334 97.005,171.268 L98.33,171.082 z" fill="#FFFFFE"/>
    <path d="M105.393,165.75 L104.517,165.75 L104.517,169.133 L104.495,169.133 C104.144,168.542 103.597,168.246 102.852,168.246 C102.086,168.246 101.484,168.52 101.024,169.067 C100.575,169.615 100.345,170.348 100.345,171.246 C100.345,172.078 100.553,172.746 100.958,173.239 C101.374,173.732 101.922,173.984 102.611,173.984 C103.465,173.984 104.09,173.633 104.495,172.922 L104.517,172.922 L104.517,173.852 L105.393,173.852 z M104.057,172.714 C103.739,173.064 103.345,173.239 102.863,173.239 C102.37,173.239 101.976,173.053 101.681,172.692 C101.385,172.33 101.243,171.827 101.243,171.202 C101.243,170.513 101.396,169.965 101.714,169.582 C102.02,169.188 102.436,168.991 102.962,168.991 C103.4,168.991 103.761,169.144 104.068,169.44 C104.363,169.735 104.517,170.119 104.517,170.567 L104.517,171.378 C104.517,171.914 104.363,172.363 104.057,172.714 z" fill="#FFFFFE"/>
    <path d="M112.421,165.728 C112.268,165.662 112.049,165.629 111.786,165.629 C111.282,165.629 110.866,165.804 110.538,166.144 C110.209,166.483 110.045,166.932 110.045,167.491 L110.045,168.378 L109.114,168.378 L109.114,169.122 L110.045,169.122 L110.045,173.852 L110.921,173.852 L110.921,169.122 L112.202,169.122 L112.202,168.378 L110.921,168.378 L110.921,167.534 C110.921,166.757 111.227,166.374 111.841,166.374 C112.06,166.374 112.246,166.418 112.421,166.516 z" fill="#FFFFFE"/>
    <path d="M115.903,168.356 C115.782,168.301 115.607,168.279 115.377,168.279 C115.049,168.279 114.764,168.389 114.501,168.608 C114.249,168.826 114.063,169.122 113.943,169.505 L113.921,169.505 L113.921,168.378 L113.045,168.378 L113.045,173.852 L113.921,173.852 L113.921,171.06 C113.921,170.48 114.041,169.998 114.282,169.637 C114.523,169.275 114.841,169.089 115.235,169.089 C115.52,169.089 115.749,169.144 115.903,169.264 z" fill="#FFFFFE"/>
    <path d="M121.038,169.013 C120.578,168.498 119.943,168.246 119.133,168.246 C118.257,168.246 117.578,168.509 117.085,169.035 C116.593,169.56 116.341,170.272 116.341,171.181 C116.341,172.024 116.582,172.692 117.063,173.206 C117.545,173.721 118.191,173.984 119.001,173.984 C119.834,173.984 120.491,173.721 120.983,173.195 C121.476,172.659 121.728,171.958 121.728,171.093 C121.728,170.206 121.498,169.516 121.038,169.013 z M120.381,172.692 C120.074,173.053 119.636,173.239 119.067,173.239 C118.509,173.239 118.06,173.053 117.731,172.681 C117.403,172.319 117.239,171.805 117.239,171.148 C117.239,170.458 117.403,169.932 117.731,169.56 C118.06,169.177 118.509,168.991 119.067,168.991 C119.636,168.991 120.063,169.177 120.37,169.538 C120.677,169.91 120.83,170.436 120.83,171.126 C120.83,171.805 120.677,172.33 120.381,172.692 z" fill="#FFFFFE"/>
    <path d="M130.712,170.48 C130.712,168.991 130.109,168.246 128.905,168.246 C128.095,168.246 127.493,168.629 127.087,169.385 C126.978,169.024 126.781,168.739 126.496,168.542 C126.212,168.345 125.883,168.246 125.533,168.246 C124.788,168.246 124.23,168.575 123.836,169.243 L123.814,169.243 L123.814,168.378 L122.938,168.378 L122.938,173.852 L123.814,173.852 L123.814,170.732 C123.814,170.217 123.934,169.801 124.186,169.473 C124.438,169.155 124.755,168.991 125.138,168.991 C125.971,168.991 126.387,169.527 126.387,170.6 L126.387,173.852 L127.263,173.852 L127.263,170.732 C127.263,170.25 127.394,169.845 127.657,169.505 C127.92,169.166 128.237,168.991 128.609,168.991 C129.058,168.991 129.365,169.122 129.551,169.385 C129.737,169.659 129.836,170.097 129.836,170.71 L129.836,173.852 L130.712,173.852 z" fill="#FFFFFE"/>
    <path d="M67.3,179.779 L65.734,185.681 C65.657,185.987 65.603,186.228 65.592,186.414 L65.57,186.414 C65.548,186.163 65.504,185.922 65.438,185.703 L63.818,179.779 L62.953,179.779 L61.256,185.659 C61.168,185.954 61.114,186.206 61.092,186.425 L61.07,186.425 C61.048,186.173 61.004,185.922 60.938,185.659 L59.307,179.779 L58.321,179.779 L60.566,187.444 L61.606,187.444 L63.194,181.827 C63.26,181.586 63.314,181.323 63.336,181.06 L63.358,181.06 C63.38,181.367 63.413,181.63 63.479,181.838 L65.055,187.444 L66.106,187.444 L68.274,179.779 z" fill="#FFFFFE"/>
    <path d="M70.144,179.604 C70.035,179.494 69.893,179.44 69.728,179.44 C69.564,179.44 69.433,179.494 69.323,179.604 C69.214,179.724 69.159,179.856 69.159,180.009 C69.159,180.173 69.214,180.316 69.323,180.425 C69.433,180.524 69.564,180.578 69.728,180.578 C69.882,180.578 70.024,180.524 70.134,180.414 C70.254,180.305 70.309,180.173 70.309,180.009 C70.309,179.845 70.254,179.713 70.144,179.604 z M70.155,181.969 L69.28,181.969 L69.28,187.444 L70.155,187.444 z" fill="#FFFFFE"/>
    <path d="M76.243,184.093 C76.243,183.37 76.09,182.812 75.772,182.429 C75.455,182.035 74.995,181.838 74.393,181.838 C73.604,181.838 73.002,182.188 72.597,182.878 L72.575,182.878 L72.575,181.969 L71.699,181.969 L71.699,187.444 L72.575,187.444 L72.575,184.323 C72.575,183.819 72.718,183.392 73.013,183.075 C73.298,182.746 73.659,182.582 74.097,182.582 C74.94,182.582 75.367,183.162 75.367,184.323 L75.367,187.444 L76.243,187.444 z" fill="#FFFFFE"/>
    <path d="M82.43,179.341 L81.554,179.341 L81.554,182.724 L81.532,182.724 C81.181,182.133 80.634,181.838 79.889,181.838 C79.123,181.838 78.521,182.111 78.061,182.659 C77.612,183.206 77.382,183.94 77.382,184.838 C77.382,185.67 77.59,186.338 77.995,186.83 C78.411,187.323 78.959,187.575 79.648,187.575 C80.503,187.575 81.127,187.225 81.532,186.513 L81.554,186.513 L81.554,187.444 L82.43,187.444 z M81.094,186.305 C80.776,186.655 80.382,186.83 79.9,186.83 C79.408,186.83 79.013,186.644 78.718,186.283 C78.422,185.922 78.28,185.418 78.28,184.794 C78.28,184.104 78.433,183.557 78.751,183.173 C79.057,182.779 79.473,182.582 79.999,182.582 C80.437,182.582 80.798,182.735 81.105,183.031 C81.4,183.327 81.554,183.71 81.554,184.159 L81.554,184.969 C81.554,185.506 81.4,185.954 81.094,186.305 z" fill="#FFFFFE"/>
    <path d="M88.319,182.604 C87.859,182.089 87.224,181.838 86.414,181.838 C85.538,181.838 84.859,182.1 84.367,182.626 C83.874,183.151 83.622,183.863 83.622,184.772 C83.622,185.615 83.863,186.283 84.345,186.798 C84.826,187.312 85.472,187.575 86.283,187.575 C87.115,187.575 87.772,187.312 88.265,186.787 C88.757,186.25 89.009,185.549 89.009,184.684 C89.009,183.797 88.779,183.108 88.319,182.604 z M87.662,186.283 C87.356,186.644 86.918,186.83 86.348,186.83 C85.79,186.83 85.341,186.644 85.013,186.272 C84.684,185.911 84.52,185.396 84.52,184.739 C84.52,184.049 84.684,183.524 85.013,183.151 C85.341,182.768 85.79,182.582 86.348,182.582 C86.918,182.582 87.345,182.768 87.651,183.13 C87.958,183.502 88.111,184.027 88.111,184.717 C88.111,185.396 87.958,185.922 87.662,186.283 z" fill="#FFFFFE"/>
    <path d="M96.202,181.969 L95.085,186.097 C95.03,186.25 95.008,186.414 94.997,186.59 L94.953,186.59 C94.942,186.403 94.91,186.239 94.877,186.097 L93.738,181.969 L92.939,181.969 L91.68,186.075 C91.625,186.272 91.581,186.447 91.581,186.579 L91.537,186.579 C91.526,186.392 91.493,186.228 91.461,186.086 L90.333,181.969 L89.413,181.969 L91.066,187.444 L91.942,187.444 L93.169,183.513 C93.234,183.316 93.267,183.151 93.278,183.02 L93.3,183.02 C93.322,183.217 93.344,183.392 93.388,183.524 L94.515,187.444 L95.424,187.444 L97.067,181.969 z" fill="#FFFFFE"/>
    <path d="M100.667,185.068 C100.459,184.827 100.097,184.586 99.572,184.367 C99.145,184.192 98.871,184.038 98.74,183.907 C98.597,183.776 98.532,183.589 98.532,183.349 C98.532,183.119 98.619,182.943 98.794,182.801 C98.97,182.659 99.2,182.582 99.495,182.582 C99.966,182.582 100.371,182.714 100.732,182.976 L100.732,182.089 C100.382,181.925 99.999,181.838 99.561,181.838 C99.002,181.838 98.543,181.991 98.181,182.286 C97.82,182.593 97.634,182.976 97.634,183.425 C97.634,183.819 97.732,184.126 97.929,184.367 C98.137,184.608 98.477,184.827 98.959,185.035 C99.44,185.254 99.747,185.429 99.878,185.56 C100.021,185.692 100.086,185.856 100.086,186.064 C100.086,186.579 99.736,186.83 99.046,186.83 C98.532,186.83 98.05,186.655 97.623,186.305 L97.623,187.247 C98.006,187.465 98.466,187.575 98.981,187.575 C99.583,187.575 100.076,187.433 100.437,187.137 C100.798,186.841 100.984,186.447 100.984,185.976 C100.984,185.615 100.875,185.308 100.667,185.068 z" fill="#FFFFFE"/>
    <path d="M108.93,180.381 C108.481,179.976 107.846,179.779 107.025,179.779 L104.923,179.779 L104.923,187.444 L105.821,187.444 L105.821,184.542 L106.828,184.542 C107.66,184.542 108.328,184.312 108.843,183.863 C109.357,183.403 109.609,182.812 109.609,182.067 C109.609,181.345 109.379,180.786 108.93,180.381 z M108.175,183.316 C107.846,183.589 107.375,183.732 106.762,183.732 L105.821,183.732 L105.821,180.589 L106.872,180.589 C108.065,180.589 108.667,181.093 108.667,182.111 C108.667,182.637 108.503,183.031 108.175,183.316 z" fill="#FFFFFE"/>
    <path d="M115.216,184.071 C115.216,182.582 114.603,181.838 113.366,181.838 C112.588,181.838 111.986,182.188 111.57,182.878 L111.548,182.878 L111.548,179.341 L110.672,179.341 L110.672,187.444 L111.548,187.444 L111.548,184.345 C111.548,183.83 111.691,183.414 111.975,183.086 C112.271,182.746 112.632,182.582 113.07,182.582 C113.913,182.582 114.34,183.151 114.34,184.29 L114.34,187.444 L115.216,187.444 z" fill="#FFFFFE"/>
    <path d="M121.034,182.604 C120.574,182.089 119.939,181.838 119.128,181.838 C118.252,181.838 117.574,182.1 117.081,182.626 C116.588,183.151 116.336,183.863 116.336,184.772 C116.336,185.615 116.577,186.283 117.059,186.798 C117.541,187.312 118.187,187.575 118.997,187.575 C119.829,187.575 120.486,187.312 120.979,186.787 C121.472,186.25 121.723,185.549 121.723,184.684 C121.723,183.797 121.493,183.108 121.034,182.604 z M120.377,186.283 C120.07,186.644 119.632,186.83 119.063,186.83 C118.504,186.83 118.055,186.644 117.727,186.272 C117.398,185.911 117.234,185.396 117.234,184.739 C117.234,184.049 117.398,183.524 117.727,183.151 C118.055,182.768 118.504,182.582 119.063,182.582 C119.632,182.582 120.059,182.768 120.366,183.13 C120.672,183.502 120.826,184.027 120.826,184.717 C120.826,185.396 120.672,185.922 120.377,186.283 z" fill="#FFFFFE"/>
    <path d="M127.477,184.093 C127.477,183.37 127.324,182.812 127.006,182.429 C126.689,182.035 126.229,181.838 125.627,181.838 C124.838,181.838 124.236,182.188 123.831,182.878 L123.809,182.878 L123.809,181.969 L122.933,181.969 L122.933,187.444 L123.809,187.444 L123.809,184.323 C123.809,183.819 123.952,183.392 124.247,183.075 C124.532,182.746 124.893,182.582 125.331,182.582 C126.174,182.582 126.601,183.162 126.601,184.323 L126.601,187.444 L127.477,187.444 z" fill="#FFFFFE"/>
    <path d="M133.371,184.465 C133.371,183.633 133.174,182.987 132.78,182.527 C132.375,182.067 131.827,181.838 131.116,181.838 C130.645,181.838 130.218,181.958 129.835,182.21 C129.451,182.451 129.145,182.801 128.926,183.25 C128.707,183.688 128.597,184.192 128.597,184.728 C128.597,185.615 128.816,186.316 129.254,186.819 C129.692,187.323 130.305,187.575 131.083,187.575 C131.871,187.575 132.506,187.4 132.988,187.049 L132.988,186.228 C132.473,186.633 131.915,186.83 131.291,186.83 C130.743,186.83 130.305,186.666 129.999,186.338 C129.681,186.009 129.517,185.538 129.506,184.925 L133.371,184.925 z M129.517,184.181 C129.594,183.699 129.769,183.316 130.065,183.02 C130.349,182.724 130.7,182.582 131.105,182.582 C131.532,182.582 131.871,182.724 132.112,182.998 C132.342,183.283 132.462,183.677 132.473,184.181 z" fill="#FFFFFE"/>
    <path d="M140.814,184.356 C140.551,184.016 140.069,183.655 139.39,183.283 C138.941,183.031 138.624,182.823 138.427,182.681 C138.24,182.527 138.098,182.374 138.021,182.221 C137.945,182.067 137.901,181.87 137.901,181.619 C137.901,181.268 138.032,180.984 138.306,180.775 C138.569,180.567 138.919,180.458 139.346,180.458 C139.981,180.458 140.507,180.611 140.901,180.929 L140.901,179.921 C140.584,179.735 140.08,179.648 139.39,179.648 C138.678,179.648 138.087,179.834 137.638,180.217 C137.189,180.6 136.959,181.093 136.959,181.695 C136.959,182.155 137.091,182.549 137.343,182.867 C137.594,183.184 138.032,183.524 138.667,183.885 C139.324,184.257 139.751,184.553 139.959,184.783 C140.168,185.013 140.277,185.298 140.277,185.615 C140.277,186.382 139.784,186.765 138.799,186.765 C138.492,186.765 138.164,186.699 137.802,186.568 C137.452,186.436 137.167,186.272 136.948,186.075 L136.948,187.137 C137.102,187.236 137.354,187.345 137.715,187.433 C138.065,187.531 138.394,187.575 138.678,187.575 C139.456,187.575 140.08,187.389 140.54,187.028 C141,186.655 141.219,186.152 141.219,185.506 C141.219,185.068 141.087,184.684 140.814,184.356 z" fill="#FFFFFE"/>
    <path d="M144.777,186.644 C144.613,186.765 144.427,186.819 144.208,186.819 C143.923,186.819 143.715,186.743 143.584,186.59 C143.463,186.436 143.398,186.173 143.398,185.801 L143.398,182.714 L144.777,182.714 L144.777,181.969 L143.398,181.969 L143.398,180.348 L142.522,180.633 L142.522,181.969 L141.58,181.969 L141.58,182.714 L142.522,182.714 L142.522,185.954 C142.522,187.028 143.003,187.564 143.956,187.564 C144.295,187.564 144.569,187.509 144.777,187.389 z" fill="#FFFFFE"/>
    <path d="M150.009,182.604 C149.549,182.089 148.914,181.838 148.104,181.838 C147.228,181.838 146.549,182.1 146.056,182.626 C145.563,183.151 145.312,183.863 145.312,184.772 C145.312,185.615 145.552,186.283 146.034,186.798 C146.516,187.312 147.162,187.575 147.972,187.575 C148.804,187.575 149.461,187.312 149.954,186.787 C150.447,186.25 150.699,185.549 150.699,184.684 C150.699,183.797 150.469,183.108 150.009,182.604 z M149.352,186.283 C149.045,186.644 148.607,186.83 148.038,186.83 C147.479,186.83 147.031,186.644 146.702,186.272 C146.374,185.911 146.209,185.396 146.209,184.739 C146.209,184.049 146.374,183.524 146.702,183.151 C147.031,182.768 147.479,182.582 148.038,182.582 C148.607,182.582 149.034,182.768 149.341,183.13 C149.647,183.502 149.801,184.027 149.801,184.717 C149.801,185.396 149.647,185.922 149.352,186.283 z" fill="#FFFFFE"/>
    <path d="M154.766,181.947 C154.646,181.892 154.471,181.87 154.241,181.87 C153.912,181.87 153.628,181.98 153.365,182.199 C153.113,182.418 152.927,182.714 152.806,183.097 L152.784,183.097 L152.784,181.969 L151.908,181.969 L151.908,187.444 L152.784,187.444 L152.784,184.652 C152.784,184.071 152.905,183.589 153.146,183.228 C153.387,182.867 153.704,182.681 154.098,182.681 C154.383,182.681 154.613,182.735 154.766,182.856 z" fill="#FFFFFE"/>
    <path d="M159.986,184.465 C159.986,183.633 159.789,182.987 159.395,182.527 C158.989,182.067 158.442,181.838 157.73,181.838 C157.259,181.838 156.832,181.958 156.449,182.21 C156.066,182.451 155.759,182.801 155.54,183.25 C155.321,183.688 155.212,184.192 155.212,184.728 C155.212,185.615 155.431,186.316 155.869,186.819 C156.307,187.323 156.92,187.575 157.697,187.575 C158.486,187.575 159.121,187.4 159.603,187.049 L159.603,186.228 C159.088,186.633 158.529,186.83 157.905,186.83 C157.358,186.83 156.92,186.666 156.613,186.338 C156.296,186.009 156.132,185.538 156.121,184.925 L159.986,184.925 z M156.132,184.181 C156.208,183.699 156.383,183.316 156.679,183.02 C156.964,182.724 157.314,182.582 157.719,182.582 C158.146,182.582 158.486,182.724 158.727,182.998 C158.957,183.283 159.077,183.677 159.088,184.181 z" fill="#FFFFFE"/>
  </g>
</svg>
