<?xml version="1.0" encoding="UTF-8" standalone="no"?>
<svg width="972px" height="117px" viewBox="0 0 972 117" version="1.1" xmlns="http://www.w3.org/2000/svg" xmlns:xlink="http://www.w3.org/1999/xlink" xmlns:sketch="http://www.bohemiancoding.com/sketch/ns">
    <!-- Generator: Sketch 3.5.1 (25234) - http://www.bohemiancoding.com/sketch -->
    <title>Group 2</title>
    <desc>Created with Sketch.</desc>
    <defs></defs>
    <g id="Page-1" stroke="none" stroke-width="1" fill="none" fill-rule="evenodd" sketch:type="MSPage">
        <g id="Group-2" sketch:type="MSLayerGroup" transform="translate(0.000000, 1.000000)" fill="#696969">
            <g id="podlove" transform="translate(439.000000, 0.000000)" sketch:type="MSShapeGroup">
                <g id="Page-1">
                    <g id="podlove_text">
                        <g id="Page-1">
                            <g id="podlove_text">
                                <g id="Page-1">
                                    <g id="Group-2">
                                        <g id="podlove_logo" transform="translate(106.000000, 16.000000)">
                                            <g id="Group">
                                                <path d="M48.403,64.482 L10.601,64.482 L10.601,73.483 L10.601,82.283 L0,82.283 L0,26.28 L0,17.479 L48.403,17.479 C59.203,17.479 63.204,23.479 63.204,32.08 L63.204,49.882 C63.204,58.482 59.203,64.482 48.403,64.482 L48.403,64.482 L48.403,64.482 L48.403,64.482 L48.403,64.482 Z M52.603,30.28 C52.603,27.679 51.603,26.679 49.303,26.679 L13.9,26.679 C11.6,26.679 10.6,27.679 10.6,30.28 L10.6,51.681 C10.6,54.282 11.6,55.282 13.9,55.282 L49.302,55.282 C51.602,55.282 52.602,54.282 52.602,51.681 L52.602,30.28 L52.603,30.28 L52.603,30.28 L52.603,30.28 L52.603,30.28 Z" id="Shape"></path>
                                                <path d="M120.002,64.482 L83.199,64.482 C72.598,64.482 69.598,60.082 69.598,50.281 L69.598,31.68 C69.598,21.879 72.598,17.479 83.199,17.479 L120.002,17.479 C130.603,17.479 133.603,21.879 133.603,31.68 L133.603,50.281 C133.603,60.082 130.603,64.482 120.002,64.482 L120.002,64.482 L120.002,64.482 L120.002,64.482 L120.002,64.482 Z M123.002,30.48 C123.002,27.78 122.202,26.679 119.402,26.679 L83.6,26.679 C81,26.679 80.2,27.78 80.2,30.48 L80.2,51.481 C80.2,54.181 81,55.282 83.6,55.282 L119.402,55.282 C122.202,55.282 123.002,54.181 123.002,51.481 L123.002,30.48 L123.002,30.48 L123.002,30.48 L123.002,30.48 L123.002,30.48 Z" id="Shape"></path>
                                                <path d="M154.798,64.482 C143.597,64.482 139.997,58.881 139.997,49.881 L139.997,32.08 C139.997,22.68 143.697,17.479 154.798,17.479 L192.6,17.479 L192.6,0.478 L203.201,0.478 L203.201,55.681 L203.201,64.482 L154.798,64.482 L154.798,64.482 L154.798,64.482 L154.798,64.482 L154.798,64.482 Z M192.601,30.28 C192.601,27.679 191.601,26.679 189.301,26.679 L153.899,26.679 C151.599,26.679 150.599,27.679 150.599,30.28 L150.599,51.681 C150.599,54.282 151.599,55.282 153.899,55.282 L189.301,55.282 C191.601,55.282 192.601,54.282 192.601,51.681 L192.601,30.28 L192.601,30.28 L192.601,30.28 L192.601,30.28 L192.601,30.28 Z" id="Shape"></path>
                                                <path d="M211.097,64.482 L211.097,0.478 L221.698,0.478 L221.698,64.482 L211.097,64.482 L211.097,64.482 L211.097,64.482 L211.097,64.482 L211.097,64.482 Z" id="Shape"></path>
                                                <path d="M279.8,64.482 L242.997,64.482 C232.396,64.482 229.396,60.082 229.396,50.281 L229.396,31.68 C229.396,21.879 232.396,17.479 242.997,17.479 L279.8,17.479 C290.401,17.479 293.401,21.879 293.401,31.68 L293.401,50.281 C293.4,60.082 290.4,64.482 279.8,64.482 L279.8,64.482 L279.8,64.482 L279.8,64.482 L279.8,64.482 Z M282.8,30.48 C282.8,27.78 282,26.679 279.199,26.679 L243.397,26.679 C240.796,26.679 239.997,27.78 239.997,30.48 L239.997,51.481 C239.997,54.181 240.797,55.282 243.397,55.282 L279.199,55.282 C282,55.282 282.8,54.181 282.8,51.481 L282.8,30.48 L282.8,30.48 L282.8,30.48 L282.8,30.48 L282.8,30.48 Z" id="Shape"></path>
                                                <path d="M334.795,64.482 L334.495,64.482 L322.694,64.482 L322.394,64.482 L293.592,17.479 L305.693,17.479 L328.594,54.881 L351.495,17.479 L363.596,17.479 L334.795,64.482 L334.795,64.482 L334.795,64.482 L334.795,64.482 L334.795,64.482 Z" id="Shape"></path>
                                                <path d="M374.391,46.081 L374.391,50.481 C374.391,53.881 375.992,55.282 379.791,55.282 L417.793,55.282 L417.793,64.482 L377.391,64.482 C366.79,64.482 363.79,60.182 363.79,50.281 L363.79,31.68 C363.79,21.879 366.19,17.479 377.391,17.479 L413.293,17.479 C424.494,17.479 426.894,21.379 426.894,31.68 L426.894,46.08 L374.391,46.08 L374.391,46.081 L374.391,46.081 L374.391,46.081 L374.391,46.081 Z M416.894,30.48 C416.894,27.78 416.093,26.679 413.494,26.679 L377.792,26.679 C375.191,26.679 374.392,27.78 374.392,30.48 L374.392,36.88 L416.895,36.88 L416.895,30.48 L416.894,30.48 L416.894,30.48 L416.894,30.48 L416.894,30.48 Z" id="Shape"></path>
                                            </g>
                                        </g>
                                        <g id="podlove_signet_1_">
                                            <path d="M56.2476831,6.42857143 C61.0438811,6.42857143 64.9454257,10.3385714 64.9454257,15.1442857 L64.9454257,99.7214286 C64.9454257,104.527143 61.0431683,108.436429 56.2476831,108.436429 L15.6717624,108.436429 C10.8762772,108.436429 6.97473268,104.527143 6.97473268,99.7214286 L6.97473268,15.1442857 C6.97473268,10.3385714 10.8762772,6.42857143 15.6717624,6.42857143 L56.2476831,6.42857143 L56.2476831,6.42857143 L56.2476831,6.42857143 L56.2476831,6.42857143 L56.2476831,6.42857143 Z M56.2476831,0 L15.6717624,0 C7.32617822,0 0.55889109,6.78071429 0.55889109,15.1442857 L0.55889109,99.7214286 C0.55889109,108.084286 7.32617822,114.865 15.6717624,114.865 L56.2476831,114.865 C64.5954059,114.865 71.3612673,108.085 71.3612673,99.7214286 L71.3612673,15.1442857 C71.3612673,6.78071429 64.5954059,0 56.2476831,0 L56.2476831,0 L56.2476831,0 L56.2476831,0 L56.2476831,0 L56.2476831,0 Z" id="Shape" stroke="#696969" stroke-width="2"></path>
                                            <path d="M35.900198,64.58 C44.983604,64.58 52.3454257,71.9564286 52.3454257,81.0571429 C52.3454257,90.1571428 44.983604,97.535 35.900198,97.535 C26.8196435,97.535 19.456396,90.1571428 19.456396,81.0571429 C19.456396,71.9564286 26.8196435,64.58 35.900198,64.58 L35.900198,64.58 L35.900198,64.58 L35.900198,64.58 L35.900198,64.58 Z M35.900198,58.1514286 C23.2952079,58.1514286 13.0405545,68.4271429 13.0405545,81.0571429 C13.0405545,93.6878571 23.2952079,103.963571 35.900198,103.963571 C48.5059011,103.963571 58.7612673,93.6878571 58.7612673,81.0571429 C58.7619802,68.4271429 48.5059011,58.1514286 35.900198,58.1514286 L35.900198,58.1514286 L35.900198,58.1514286 L35.900198,58.1514286 L35.900198,58.1514286 L35.900198,58.1514286 Z" id="Shape" stroke="#696969"></path>
                                            <path d="M50.2546276,30.7442602 L33.4529643,47.5892603 L37.9911884,47.5894532 L21.190238,30.7423103 C19.8481449,29.371472 19.074297,27.5145334 19.074297,25.5278571 C19.074297,21.398338 22.415446,18.0507143 26.5366336,18.0507143 C29.2056159,18.0507143 31.6250472,19.4626325 32.9624472,21.7232982 L35.7225096,26.3887524 L38.4817885,21.7228329 C39.8181187,19.4631085 42.2385025,18.0507143 44.9066139,18.0507143 C49.0290731,18.0507143 52.3703763,21.3981836 52.3703763,25.5278571 C52.3703763,27.5149997 51.5961613,29.3734744 50.2333618,30.7657828 L50.2546276,30.7442602 L50.2546276,30.7442602 L50.2546276,30.7442602 L50.2546276,30.7442602 Z M54.8139254,35.2670743 C57.3410495,32.68523 58.7862178,29.2161562 58.7862178,25.5278571 C58.7862178,17.8475823 52.5722458,11.6221429 44.9066139,11.6221429 C39.9488936,11.6221429 35.4422405,14.2519616 32.962172,18.4457385 L38.4815132,18.4452734 C36.0003767,14.2512996 31.4951128,11.6221429 26.5366336,11.6221429 C18.8721408,11.6221429 12.6584554,17.8478696 12.6584554,25.5278571 C12.6584554,29.2161807 14.103632,32.6840516 16.6311638,35.2653562 L33.4527719,52.1334041 L35.7217877,54.4086582 L37.9909962,52.1335969 L54.7926595,35.2885968 L54.8139254,35.2670743 L54.8139254,35.2670743 L54.8139254,35.2670743 L54.8139254,35.2670743 Z" id="Shape" stroke="#696969"></path>
                                            <rect id="Rectangle-1" x="33" y="46" width="6" height="6"></rect>
                                            <rect id="Rectangle-1" x="33" y="16" width="6" height="6"></rect>
                                            <path d="M35.9009109,75.1592858 C39.1523169,75.1592858 41.7892277,77.8007143 41.7892277,81.0571429 C41.7892277,84.3157143 39.1523169,86.9557143 35.9009109,86.9557143 C32.6502178,86.9557143 30.0147327,84.3157143 30.0147327,81.0571429 C30.0147327,77.8007143 32.6502178,75.1592858 35.9009109,75.1592858 L35.9009109,75.1592858 L35.9009109,75.1592858 L35.9009109,75.1592858 L35.9009109,75.1592858 Z" id="Shape"></path>
                                        </g>
                                    </g>
                                </g>
                            </g>
                        </g>
                    </g>
                </g>
            </g>
            <path d="M37.5058594,60.5200195 C37.5058594,66.5890603 36.0786276,71.4879371 33.2241211,75.2167969 C30.3696146,78.9456567 26.3965098,80.8100586 21.3046875,80.8100586 C18.9387903,80.8100586 16.8429453,80.3857464 15.0170898,79.5371094 C13.1912344,78.6884723 11.6225652,77.4412517 10.3110352,75.7954102 L10.3110352,96.046875 L0.9375,96.046875 L0.9375,38.2626953 L8.84521484,38.2626953 L9.77099609,43.5087891 C11.1082424,41.5543522 12.7219144,40.0628307 14.6120605,39.0341797 C16.5022067,38.0055287 18.6944862,37.4912109 21.1889648,37.4912109 C26.3322197,37.4912109 30.3374694,39.5291951 33.204834,43.6052246 C36.0721986,47.6812541 37.5058594,53.0494459 37.5058594,59.7099609 L37.5058594,60.5200195 Z M28.1708984,59.7099609 C28.1708984,55.4410594 27.3672769,51.9501275 25.7600098,49.2370605 C24.1527426,46.5239936 21.754736,45.1674805 18.565918,45.1674805 C16.6114811,45.1674805 14.9528063,45.5853637 13.5898438,46.4211426 C12.2268812,47.2569215 11.1339559,48.4205655 10.3110352,49.9121094 L10.3110352,68.7749023 C11.1339559,70.24073 12.2268812,71.3658001 13.5898438,72.1501465 C14.9528063,72.9344929 16.637197,73.3266602 18.6430664,73.3266602 C21.8318844,73.3266602 24.2170331,72.1501582 25.798584,69.7971191 C27.3801349,67.44408 28.1708984,64.3517444 28.1708984,60.5200195 L28.1708984,59.7099609 Z M44.1977539,58.7456055 C44.1977539,52.5222671 45.9014315,47.4240921 49.3088379,43.4509277 C52.7162443,39.4777633 57.3772491,37.4912109 63.2919922,37.4912109 C69.2838841,37.4912109 73.9834628,39.4777633 77.3908691,43.4509277 C80.7982755,47.4240921 82.5019531,52.5222671 82.5019531,58.7456055 L82.5019531,59.5556641 C82.5019531,65.830435 80.7982755,70.9414679 77.3908691,74.888916 C73.9834628,78.8363641 69.3096,80.8100586 63.3691406,80.8100586 C57.402965,80.8100586 52.7162443,78.8299352 49.3088379,74.8696289 C45.9014315,70.9093226 44.1977539,65.8047187 44.1977539,59.5556641 L44.1977539,58.7456055 Z M53.5712891,59.5556641 C53.5712891,63.6445517 54.3684816,66.9619013 55.9628906,69.5078125 C57.5572996,72.0537237 60.026025,73.3266602 63.3691406,73.3266602 C66.6351075,73.3266602 69.0845459,72.0472947 70.7175293,69.4885254 C72.3505127,66.9297561 73.1669922,63.6188354 73.1669922,59.5556641 L73.1669922,58.7456055 C73.1669922,54.7595829 72.3505127,51.4743782 70.7175293,48.8898926 C69.0845459,46.305407 66.6093916,45.0131836 63.2919922,45.0131836 C60.0260253,45.0131836 57.5894449,46.305407 55.9821777,48.8898926 C54.3749106,51.4743782 53.5712891,54.7595829 53.5712891,58.7456055 L53.5712891,59.5556641 Z M127.690918,67.6176758 L127.922363,67.6176758 L134.01709,38.2626953 L143.390625,38.2626953 L131.972656,80 L124.296387,80 L115.462891,52.3808594 L115.231445,52.3808594 L106.513672,80 L98.8374023,80 L87.4194336,38.2626953 L96.7929688,38.2626953 L103.041992,67.2319336 L103.273438,67.2319336 L111.991211,38.2626953 L118.818848,38.2626953 L127.690918,67.6176758 Z M167.903809,80.8100586 C161.809052,80.8100586 157.045183,78.8877959 153.612061,75.0432129 C150.178938,71.1986299 148.462402,66.2161764 148.462402,60.0957031 L148.462402,58.5527344 C148.462402,52.4322611 150.178938,47.3855179 153.612061,43.4123535 C157.045183,39.4391891 161.474745,37.4654947 166.900879,37.4912109 C172.507027,37.4912109 176.750148,39.2206045 179.630371,42.6794434 C182.510594,46.1382823 183.950684,50.7607133 183.950684,56.546875 L183.950684,61.6000977 L158.144531,61.6000977 L158.067383,61.7929688 C158.170248,65.2132332 159.070304,67.9905492 160.767578,70.125 C162.464852,72.2594508 165.023583,73.3266602 168.443848,73.3266602 C170.989759,73.3266602 173.194896,73.0180695 175.059326,72.4008789 C176.923756,71.7836883 178.65315,70.8964902 180.247559,69.7392578 L183.294922,75.8725586 C181.700513,77.2612374 179.59181,78.4313103 176.96875,79.3828125 C174.34569,80.3343147 171.324073,80.8100586 167.903809,80.8100586 L167.903809,80.8100586 Z M166.900879,45.0131836 C164.457833,45.0131836 162.503425,45.8939528 161.037598,47.6555176 C159.57177,49.4170824 158.658856,51.7122254 158.298828,54.5410156 L158.375977,54.7338867 L174.692871,54.7338867 L174.692871,54.0009766 C174.692871,51.326484 174.069261,49.1599204 172.822021,47.5012207 C171.574782,45.842521 169.601088,45.0131836 166.900879,45.0131836 L166.900879,45.0131836 Z M212.591309,46.7104492 L208.57959,46.5561523 C206.753734,46.5561523 205.230068,46.9418907 204.008545,47.7133789 C202.787022,48.4848671 201.841963,49.5777924 201.17334,50.9921875 L201.17334,80 L191.799805,80 L191.799805,38.2626953 L200.363281,38.2626953 L200.980469,44.3188477 C202.034836,42.1843969 203.391349,40.5128641 205.050049,39.3041992 C206.708749,38.0955343 208.618153,37.4912109 210.77832,37.4912109 C211.344078,37.4912109 211.871254,37.5362137 212.359863,37.6262207 C212.848472,37.7162277 213.298501,37.8255202 213.709961,37.9541016 L212.591309,46.7104492 Z M236.757324,80.8100586 C230.662567,80.8100586 225.898699,78.8877959 222.465576,75.0432129 C219.032454,71.1986299 217.315918,66.2161764 217.315918,60.0957031 L217.315918,58.5527344 C217.315918,52.4322611 219.032454,47.3855179 222.465576,43.4123535 C225.898699,39.4391891 230.328261,37.4654947 235.754395,37.4912109 C241.360542,37.4912109 245.603664,39.2206045 248.483887,42.6794434 C251.364109,46.1382823 252.804199,50.7607133 252.804199,56.546875 L252.804199,61.6000977 L226.998047,61.6000977 L226.920898,61.7929688 C227.023764,65.2132332 227.92382,67.9905492 229.621094,70.125 C231.318368,72.2594508 233.877099,73.3266602 237.297363,73.3266602 C239.843274,73.3266602 242.048412,73.0180695 243.912842,72.4008789 C245.777272,71.7836883 247.506665,70.8964902 249.101074,69.7392578 L252.148438,75.8725586 C250.554028,77.2612374 248.445326,78.4313103 245.822266,79.3828125 C243.199206,80.3343147 240.177589,80.8100586 236.757324,80.8100586 L236.757324,80.8100586 Z M235.754395,45.0131836 C233.311348,45.0131836 231.356941,45.8939528 229.891113,47.6555176 C228.425286,49.4170824 227.512372,51.7122254 227.152344,54.5410156 L227.229492,54.7338867 L243.546387,54.7338867 L243.546387,54.0009766 C243.546387,51.326484 242.922776,49.1599204 241.675537,47.5012207 C240.428298,45.842521 238.454603,45.0131836 235.754395,45.0131836 L235.754395,45.0131836 Z M258.91748,59.7099609 C258.91748,53.0494459 260.344712,47.6812541 263.199219,43.6052246 C266.053725,39.5291951 270.065404,37.4912109 275.234375,37.4912109 C277.497407,37.4912109 279.522533,37.947668 281.309814,38.8605957 C283.097096,39.7735234 284.646478,41.0786048 285.958008,42.7758789 L285.958008,19.8242188 L295.331543,19.8242188 L295.331543,80 L287.732422,80 L286.61377,74.715332 C285.276523,76.6954852 283.656422,78.2062936 281.753418,79.2478027 C279.850414,80.2893118 277.651705,80.8100586 275.157227,80.8100586 C270.039688,80.8100586 266.053725,78.9456567 263.199219,75.2167969 C260.344712,71.4879371 258.91748,66.5890603 258.91748,60.5200195 L258.91748,59.7099609 Z M268.291016,60.5200195 C268.291016,64.3774607 269.030347,67.4505094 270.509033,69.7392578 C271.987719,72.0280062 274.334294,73.1723633 277.548828,73.1723633 C279.528981,73.1723633 281.206943,72.7480511 282.582764,71.8994141 C283.958584,71.050777 285.083654,69.8421302 285.958008,68.2734375 L285.958008,50.0664062 C285.083654,48.5234298 283.952155,47.321212 282.563477,46.4597168 C281.174798,45.5982216 279.528981,45.1674805 277.625977,45.1674805 C274.437159,45.1674805 272.084155,46.5111357 270.566895,49.1984863 C269.049634,51.885837 268.291016,55.3896268 268.291016,59.7099609 L268.291016,60.5200195 Z M362.217773,60.5200195 C362.217773,66.6147766 360.796971,71.5200823 357.955322,75.236084 C355.113674,78.9520856 351.108424,80.8100586 345.939453,80.8100586 C343.316393,80.8100586 341.040537,80.2700249 339.111816,79.1899414 C337.183096,78.1098579 335.575853,76.5411887 334.290039,74.4838867 L333.171387,80 L325.572266,80 L325.572266,19.8242188 L334.945801,19.8242188 L334.945801,43.0073242 C336.231615,41.2329013 337.774568,39.8699592 339.574707,38.918457 C341.374846,37.9669549 343.470691,37.4912109 345.862305,37.4912109 C351.082708,37.4912109 355.113674,39.5227661 357.955322,43.5859375 C360.796971,47.6491089 362.217773,53.0237296 362.217773,59.7099609 L362.217773,60.5200195 Z M352.844238,59.7099609 C352.844238,55.3639106 352.098478,51.8536918 350.606934,49.1791992 C349.11539,46.5047067 346.749528,45.1674805 343.509277,45.1674805 C341.426259,45.1674805 339.684008,45.6303665 338.282471,46.5561523 C336.880934,47.4819382 335.768722,48.7677327 334.945801,50.4135742 L334.945801,67.9262695 C335.743005,69.5978274 336.848789,70.8900508 338.263184,71.8029785 C339.677579,72.7159063 341.451975,73.1723633 343.586426,73.1723633 C346.826676,73.1723633 349.17968,72.0344352 350.645508,69.7585449 C352.111335,67.4826546 352.844238,64.403177 352.844238,60.5200195 L352.844238,59.7099609 Z M384.416504,63.2587891 L385.342285,67.4248047 L385.57373,67.4248047 L394.71582,38.2626953 L404.976562,38.2626953 L387.695312,86.3261719 C386.589513,89.2321109 385.033701,91.7136941 383.027832,93.7709961 C381.021963,95.828298 378.180357,96.8569336 374.50293,96.8569336 C373.731441,96.8569336 372.902104,96.7797859 372.014893,96.6254883 C371.127681,96.4711906 370.272628,96.2911794 369.449707,96.0854492 L370.491211,88.8334961 C370.825523,88.8592124 371.301266,88.8977862 371.918457,88.9492188 C372.535648,89.0006513 372.998534,89.0263672 373.307129,89.0263672 C375.004403,89.0263672 376.360916,88.4477597 377.376709,87.2905273 C378.392502,86.133295 379.221839,84.7960688 379.864746,83.2788086 L381.407715,79.4985352 L366.248047,38.2626953 L376.470215,38.2626953 L384.416504,63.2587891 Z" id="powered-by" sketch:type="MSShapeGroup"></path>
        </g>
    </g>
</svg>