<svg xmlns="http://www.w3.org/2000/svg" version="1.1" xmlns:xlink="http://www.w3.org/1999/xlink" xmlns:svgjs="http://svgjs.dev/svgjs" width="1440" height="560" preserveAspectRatio="none" viewBox="0 0 1440 560"><g mask="url(&quot;#SvgjsMask1047&quot;)" fill="none"><path d="M912 295L911 139" stroke-width="8" stroke="url(&quot;#SvgjsLinearGradient1048&quot;)" stroke-linecap="round" class="Up"></path><path d="M992 504L991 360" stroke-width="6" stroke="url(&quot;#SvgjsLinearGradient1049&quot;)" stroke-linecap="round" class="Up"></path><path d="M831 113L830 -239" stroke-width="6" stroke="url(&quot;#SvgjsLinearGradient1049&quot;)" stroke-linecap="round" class="Up"></path><path d="M1167 4L1166 -274" stroke-width="10" stroke="url(&quot;#SvgjsLinearGradient1049&quot;)" stroke-linecap="round" class="Up"></path><path d="M420 286L419 674" stroke-width="10" stroke="url(&quot;#SvgjsLinearGradient1050&quot;)" stroke-linecap="round" class="Down"></path><path d="M1286 77L1285 465" stroke-width="6" stroke="url(&quot;#SvgjsLinearGradient1051&quot;)" stroke-linecap="round" class="Down"></path><path d="M853 114L852 -76" stroke-width="6" stroke="url(&quot;#SvgjsLinearGradient1048&quot;)" stroke-linecap="round" class="Up"></path><path d="M880 514L879 250" stroke-width="8" stroke="url(&quot;#SvgjsLinearGradient1049&quot;)" stroke-linecap="round" class="Up"></path><path d="M1205 20L1204 -138" stroke-width="6" stroke="url(&quot;#SvgjsLinearGradient1051&quot;)" stroke-linecap="round" class="Down"></path><path d="M83 265L82 517" stroke-width="8" stroke="url(&quot;#SvgjsLinearGradient1051&quot;)" stroke-linecap="round" class="Down"></path><path d="M1133 352L1132 162" stroke-width="8" stroke="url(&quot;#SvgjsLinearGradient1048&quot;)" stroke-linecap="round" class="Up"></path><path d="M588 220L587 -149" stroke-width="8" stroke="url(&quot;#SvgjsLinearGradient1050&quot;)" stroke-linecap="round" class="Down"></path><path d="M44 353L43 652" stroke-width="6" stroke="url(&quot;#SvgjsLinearGradient1050&quot;)" stroke-linecap="round" class="Down"></path><path d="M1007 194L1006 -162" stroke-width="6" stroke="url(&quot;#SvgjsLinearGradient1049&quot;)" stroke-linecap="round" class="Up"></path><path d="M1372 113L1371 -181" stroke-width="10" stroke="url(&quot;#SvgjsLinearGradient1050&quot;)" stroke-linecap="round" class="Down"></path><path d="M1093 206L1092 494" stroke-width="8" stroke="url(&quot;#SvgjsLinearGradient1049&quot;)" stroke-linecap="round" class="Up"></path><path d="M672 512L671 894" stroke-width="8" stroke="url(&quot;#SvgjsLinearGradient1051&quot;)" stroke-linecap="round" class="Down"></path><path d="M708 438L707 676" stroke-width="6" stroke="url(&quot;#SvgjsLinearGradient1051&quot;)" stroke-linecap="round" class="Down"></path><path d="M18 340L17 534" stroke-width="8" stroke="url(&quot;#SvgjsLinearGradient1048&quot;)" stroke-linecap="round" class="Up"></path><path d="M989 195L988 -52" stroke-width="8" stroke="url(&quot;#SvgjsLinearGradient1050&quot;)" stroke-linecap="round" class="Down"></path><path d="M408 93L407 -208" stroke-width="10" stroke="url(&quot;#SvgjsLinearGradient1049&quot;)" stroke-linecap="round" class="Up"></path><path d="M242 549L241 134" stroke-width="10" stroke="url(&quot;#SvgjsLinearGradient1050&quot;)" stroke-linecap="round" class="Down"></path><path d="M419 137L418 -34" stroke-width="6" stroke="url(&quot;#SvgjsLinearGradient1051&quot;)" stroke-linecap="round" class="Down"></path><path d="M991 76L990 232" stroke-width="10" stroke="url(&quot;#SvgjsLinearGradient1048&quot;)" stroke-linecap="round" class="Up"></path><path d="M748 16L747 -195" stroke-width="6" stroke="url(&quot;#SvgjsLinearGradient1049&quot;)" stroke-linecap="round" class="Up"></path><path d="M1242 327L1241 716" stroke-width="8" stroke="url(&quot;#SvgjsLinearGradient1050&quot;)" stroke-linecap="round" class="Down"></path><path d="M620 245L619 -40" stroke-width="6" stroke="url(&quot;#SvgjsLinearGradient1051&quot;)" stroke-linecap="round" class="Down"></path><path d="M356 395L355 110" stroke-width="10" stroke="url(&quot;#SvgjsLinearGradient1048&quot;)" stroke-linecap="round" class="Up"></path><path d="M627 457L626 835" stroke-width="10" stroke="url(&quot;#SvgjsLinearGradient1049&quot;)" stroke-linecap="round" class="Up"></path><path d="M936 457L935 670" stroke-width="6" stroke="url(&quot;#SvgjsLinearGradient1048&quot;)" stroke-linecap="round" class="Up"></path><path d="M883 37L882 -285" stroke-width="10" stroke="url(&quot;#SvgjsLinearGradient1051&quot;)" stroke-linecap="round" class="Down"></path><path d="M165 304L164 523" stroke-width="6" stroke="url(&quot;#SvgjsLinearGradient1048&quot;)" stroke-linecap="round" class="Up"></path><path d="M337 142L336 -136" stroke-width="10" stroke="url(&quot;#SvgjsLinearGradient1049&quot;)" stroke-linecap="round" class="Up"></path><path d="M883 452L882 605" stroke-width="8" stroke="url(&quot;#SvgjsLinearGradient1050&quot;)" stroke-linecap="round" class="Down"></path><path d="M93 393L92 557" stroke-width="10" stroke="url(&quot;#SvgjsLinearGradient1050&quot;)" stroke-linecap="round" class="Down"></path><path d="M1260 395L1259 81" stroke-width="10" stroke="url(&quot;#SvgjsLinearGradient1050&quot;)" stroke-linecap="round" class="Down"></path></g><defs><mask id="SvgjsMask1047"><rect width="1440" height="560" fill="#ffffff"></rect></mask><linearGradient x1="0%" y1="100%" x2="0%" y2="0%" id="SvgjsLinearGradient1048"><stop stop-color="rgba(79, 70, 229, 0)" offset="0"></stop><stop stop-color="rgba(79, 70, 229, 1)" offset="1"></stop></linearGradient><linearGradient x1="0%" y1="100%" x2="0%" y2="0%" id="SvgjsLinearGradient1049"><stop stop-color="rgba(67, 56, 202, 0)" offset="0"></stop><stop stop-color="rgba(67, 56, 202, 1)" offset="1"></stop></linearGradient><linearGradient x1="0%" y1="0%" x2="0%" y2="100%" id="SvgjsLinearGradient1050"><stop stop-color="rgba(67, 56, 202, 0)" offset="0"></stop><stop stop-color="rgba(67, 56, 202, 1)" offset="1"></stop></linearGradient><linearGradient x1="0%" y1="0%" x2="0%" y2="100%" id="SvgjsLinearGradient1051"><stop stop-color="rgba(79, 70, 229, 0)" offset="0"></stop><stop stop-color="rgba(79, 70, 229, 1)" offset="1"></stop></linearGradient></defs></svg>