<?xml version="1.0" encoding="UTF-8"?>
<!DOCTYPE svg PUBLIC "-//W3C//DTD SVG 1.1//EN" "http://www.w3.org/Graphics/SVG/1.1/DTD/svg11.dtd">
<svg version="1.1" xmlns="http://www.w3.org/2000/svg" xmlns:xlink="http://www.w3.org/1999/xlink" x="0" y="0" width="154" height="40" viewBox="0, 0, 154, 40">
  <g id="Layer_1" transform="translate(0, 0)">
    <path d="M48.363,11.467 Q48.363,12.696 47.824,13.637 Q47.285,14.577 46.291,15.086 Q45.297,15.594 44.017,15.594 L41.889,15.594 L41.889,7.541 L44.112,7.541 Q48.363,7.541 48.363,11.467 z M47.375,11.489 Q47.375,8.395 44.09,8.395 L42.832,8.395 L42.832,14.74 L44.028,14.74 Q45.623,14.74 46.499,13.889 Q47.375,13.039 47.375,11.489 z" fill="#FFFFFF"/>
    <path d="M55.062,12.696 Q55.062,14.066 54.285,14.9 Q53.507,15.734 52.199,15.734 Q50.924,15.734 50.163,14.923 Q49.402,14.111 49.402,12.786 Q49.402,11.36 50.183,10.532 Q50.963,9.703 52.333,9.703 Q53.614,9.703 54.338,10.503 Q55.062,11.304 55.062,12.696 z M54.119,12.73 Q54.119,11.646 53.639,11.068 Q53.159,10.489 52.266,10.489 Q51.379,10.489 50.862,11.082 Q50.345,11.674 50.345,12.752 Q50.345,13.786 50.865,14.367 Q51.384,14.948 52.266,14.948 Q53.164,14.948 53.642,14.375 Q54.119,13.802 54.119,12.73 z" fill="#FFFFFF"/>
    <path d="M63.625,9.844 L61.901,15.594 L60.947,15.594 L59.762,11.478 Q59.7,11.264 59.672,10.95 L59.65,10.95 Q59.633,11.146 59.532,11.467 L58.246,15.594 L57.325,15.594 L55.59,9.844 L56.556,9.844 L57.741,14.167 Q57.797,14.392 57.819,14.684 L57.864,14.684 Q57.875,14.471 57.971,14.156 L59.29,9.844 L60.133,9.844 L61.329,14.179 Q61.385,14.398 61.407,14.695 L61.452,14.695 Q61.463,14.426 61.542,14.179 L62.716,9.844 z" fill="#FFFFFF"/>
    <path d="M69.205,15.594 L68.284,15.594 L68.284,12.314 Q68.284,10.489 66.947,10.489 Q66.268,10.489 65.81,11.003 Q65.353,11.517 65.353,12.314 L65.353,15.594 L64.432,15.594 L64.432,9.844 L65.353,9.844 L65.353,10.798 L65.375,10.798 Q66.021,9.703 67.262,9.703 Q68.211,9.703 68.708,10.321 Q69.205,10.939 69.205,12.073 z" fill="#FFFFFF"/>
    <path d="M71.781,15.594 L70.86,15.594 L70.86,7.081 L71.781,7.081 z" fill="#FFFFFF"/>
    <path d="M78.821,12.696 Q78.821,14.066 78.044,14.9 Q77.266,15.734 75.958,15.734 Q74.683,15.734 73.922,14.923 Q73.161,14.111 73.161,12.786 Q73.161,11.36 73.942,10.532 Q74.722,9.703 76.092,9.703 Q77.373,9.703 78.097,10.503 Q78.821,11.304 78.821,12.696 z M77.878,12.73 Q77.878,11.646 77.398,11.068 Q76.918,10.489 76.025,10.489 Q75.138,10.489 74.621,11.082 Q74.105,11.674 74.105,12.752 Q74.105,13.786 74.624,14.367 Q75.143,14.948 76.025,14.948 Q76.924,14.948 77.401,14.375 Q77.878,13.802 77.878,12.73 z" fill="#FFFFFF"/>
    <path d="M84.304,15.594 L83.383,15.594 L83.383,14.695 L83.36,14.695 Q82.759,15.734 81.592,15.734 Q80.76,15.734 80.261,15.282 Q79.761,14.83 79.761,14.066 Q79.761,12.46 81.659,12.191 L83.383,11.949 Q83.383,10.489 82.198,10.489 Q81.159,10.489 80.322,11.191 L80.322,10.248 Q80.575,10.057 81.187,9.88 Q81.799,9.703 82.277,9.703 Q84.304,9.703 84.304,11.854 z M83.383,12.685 L81.99,12.882 Q81.277,12.983 80.991,13.221 Q80.704,13.46 80.704,13.993 Q80.704,14.426 81.013,14.687 Q81.322,14.948 81.805,14.948 Q82.49,14.948 82.936,14.465 Q83.383,13.982 83.383,13.258 z" fill="#FFFFFF"/>
    <path d="M90.902,15.594 L89.981,15.594 L89.981,14.617 L89.958,14.617 Q89.318,15.734 87.982,15.734 Q86.892,15.734 86.247,14.951 Q85.601,14.167 85.601,12.859 Q85.601,11.433 86.317,10.568 Q87.033,9.703 88.234,9.703 Q89.414,9.703 89.958,10.635 L89.981,10.635 L89.981,7.081 L90.902,7.081 z M89.981,12.994 L89.981,12.146 Q89.981,11.433 89.506,10.961 Q89.032,10.489 88.352,10.489 Q87.521,10.489 87.033,11.104 Q86.544,11.719 86.544,12.809 Q86.544,13.797 87.005,14.372 Q87.465,14.948 88.246,14.948 Q89.004,14.948 89.492,14.398 Q89.981,13.847 89.981,12.994 z" fill="#FFFFFF"/>
    <path d="M98.058,7.89 Q97.789,7.738 97.446,7.738 Q96.481,7.738 96.481,8.956 L96.481,9.844 L97.828,9.844 L97.828,10.624 L96.481,10.624 L96.481,15.594 L95.56,15.594 L95.56,10.624 L94.583,10.624 L94.583,9.844 L95.56,9.844 L95.56,8.912 Q95.56,8.036 96.076,7.497 Q96.593,6.957 97.39,6.957 Q97.811,6.957 98.058,7.059 z" fill="#FFFFFF"/>
    <path d="M101.838,10.776 Q101.591,10.591 101.136,10.591 Q100.524,10.591 100.142,11.166 Q99.761,11.742 99.761,12.663 L99.761,15.594 L98.84,15.594 L98.84,9.844 L99.761,9.844 L99.761,11.029 L99.783,11.029 Q99.974,10.433 100.373,10.088 Q100.771,9.743 101.288,9.743 Q101.647,9.743 101.838,9.821 z" fill="#FFFFFF"/>
    <path d="M107.845,12.696 Q107.845,14.066 107.068,14.9 Q106.29,15.734 104.982,15.734 Q103.707,15.734 102.946,14.923 Q102.185,14.111 102.185,12.786 Q102.185,11.36 102.966,10.532 Q103.746,9.703 105.116,9.703 Q106.397,9.703 107.121,10.503 Q107.845,11.304 107.845,12.696 z M106.902,12.73 Q106.902,11.646 106.422,11.068 Q105.942,10.489 105.049,10.489 Q104.162,10.489 103.645,11.082 Q103.129,11.674 103.129,12.752 Q103.129,13.786 103.648,14.367 Q104.167,14.948 105.049,14.948 Q105.947,14.948 106.425,14.375 Q106.902,13.802 106.902,12.73 z" fill="#FFFFFF"/>
    <path d="M117.39,15.594 L116.469,15.594 L116.469,12.292 Q116.469,11.326 116.174,10.908 Q115.88,10.489 115.183,10.489 Q114.594,10.489 114.181,11.029 Q113.768,11.568 113.768,12.314 L113.768,15.594 L112.847,15.594 L112.847,12.18 Q112.847,10.489 111.539,10.489 Q110.933,10.489 110.54,10.998 Q110.146,11.506 110.146,12.314 L110.146,15.594 L109.226,15.594 L109.226,9.844 L110.146,9.844 L110.146,10.753 L110.169,10.753 Q110.781,9.703 111.949,9.703 Q112.51,9.703 112.96,10.018 Q113.409,10.332 113.583,10.899 Q114.223,9.703 115.492,9.703 Q117.39,9.703 117.39,12.05 z" fill="#FFFFFF"/>
    <path d="M56.274,22.616 L52.962,34.344 L51.351,34.344 L48.938,25.764 Q48.799,25.282 48.758,24.578 L48.725,24.578 Q48.66,25.184 48.505,25.748 L46.076,34.344 L44.481,34.344 L41.054,22.616 L42.559,22.616 L45.053,31.612 Q45.209,32.209 45.258,32.79 L45.29,32.79 Q45.331,32.291 45.536,31.612 L48.137,22.616 L49.462,22.616 L51.94,31.678 Q52.079,32.185 52.136,32.765 L52.169,32.765 Q52.21,32.34 52.39,31.645 L54.786,22.616 z" fill="#FFFFFF"/>
    <path d="M59.087,22.967 Q59.087,23.343 58.826,23.593 Q58.564,23.842 58.204,23.842 Q57.836,23.842 57.582,23.601 Q57.329,23.36 57.329,22.967 Q57.329,22.616 57.578,22.358 Q57.828,22.1 58.204,22.1 Q58.58,22.1 58.834,22.354 Q59.087,22.607 59.087,22.967 z M58.858,34.344 L57.517,34.344 L57.517,25.969 L58.858,25.969 z" fill="#FFFFFF"/>
    <path d="M67.919,34.344 L66.578,34.344 L66.578,29.567 Q66.578,26.909 64.631,26.909 Q63.642,26.909 62.975,27.658 Q62.309,28.406 62.309,29.567 L62.309,34.344 L60.967,34.344 L60.967,25.969 L62.309,25.969 L62.309,27.359 L62.341,27.359 Q63.282,25.764 65.089,25.764 Q66.472,25.764 67.196,26.664 Q67.919,27.564 67.919,29.216 z" fill="#FFFFFF"/>
    <path d="M77.464,34.344 L76.122,34.344 L76.122,32.921 L76.09,32.921 Q75.157,34.548 73.211,34.548 Q71.624,34.548 70.684,33.407 Q69.743,32.266 69.743,30.361 Q69.743,28.283 70.786,27.024 Q71.829,25.764 73.579,25.764 Q75.296,25.764 76.09,27.122 L76.122,27.122 L76.122,21.945 L77.464,21.945 z M76.122,30.557 L76.122,29.322 Q76.122,28.283 75.431,27.596 Q74.74,26.909 73.751,26.909 Q72.54,26.909 71.829,27.805 Q71.117,28.7 71.117,30.287 Q71.117,31.727 71.788,32.565 Q72.458,33.403 73.595,33.403 Q74.699,33.403 75.411,32.602 Q76.122,31.8 76.122,30.557 z" fill="#FFFFFF"/>
    <path d="M87.283,30.124 Q87.283,32.119 86.151,33.334 Q85.018,34.548 83.112,34.548 Q81.256,34.548 80.147,33.366 Q79.039,32.185 79.039,30.254 Q79.039,28.177 80.176,26.971 Q81.313,25.764 83.309,25.764 Q85.173,25.764 86.228,26.93 Q87.283,28.095 87.283,30.124 z M85.909,30.173 Q85.909,28.594 85.21,27.752 Q84.511,26.909 83.21,26.909 Q81.918,26.909 81.166,27.772 Q80.413,28.635 80.413,30.205 Q80.413,31.71 81.17,32.557 Q81.926,33.403 83.21,33.403 Q84.519,33.403 85.214,32.569 Q85.909,31.735 85.909,30.173 z" fill="#FFFFFF"/>
    <path d="M99.356,25.969 L96.846,34.344 L95.455,34.344 L93.729,28.349 Q93.64,28.038 93.599,27.58 L93.566,27.58 Q93.541,27.866 93.394,28.332 L91.521,34.344 L90.18,34.344 L87.653,25.969 L89.059,25.969 L90.785,32.266 Q90.867,32.594 90.9,33.019 L90.965,33.019 Q90.981,32.708 91.12,32.25 L93.042,25.969 L94.269,25.969 L96.011,32.283 Q96.093,32.602 96.126,33.035 L96.191,33.035 Q96.208,32.643 96.322,32.283 L98.032,25.969 z" fill="#FFFFFF"/>
    <path d="M105.44,32.103 Q105.44,33.191 104.602,33.869 Q103.764,34.548 102.373,34.548 Q101.187,34.548 100.296,34.041 L100.296,32.602 Q101.285,33.403 102.471,33.403 Q104.066,33.403 104.066,32.234 Q104.066,31.759 103.755,31.461 Q103.445,31.162 102.341,30.655 Q101.228,30.181 100.77,29.637 Q100.312,29.093 100.312,28.193 Q100.312,27.155 101.146,26.46 Q101.981,25.764 103.265,25.764 Q104.254,25.764 105.056,26.157 L105.056,27.506 Q104.238,26.909 103.158,26.909 Q102.496,26.909 102.091,27.236 Q101.686,27.564 101.686,28.079 Q101.686,28.635 101.997,28.934 Q102.308,29.232 103.281,29.641 Q104.475,30.148 104.958,30.704 Q105.44,31.26 105.44,32.103 z" fill="#FFFFFF"/>
    <path d="M116.97,31.383 Q116.97,32.863 115.923,33.706 Q114.877,34.548 113.077,34.548 Q112.423,34.548 111.601,34.332 Q110.779,34.115 110.436,33.878 L110.436,32.25 Q110.934,32.7 111.748,33.002 Q112.562,33.305 113.265,33.305 Q115.523,33.305 115.523,31.547 Q115.523,30.811 115.04,30.283 Q114.558,29.756 113.061,28.897 Q111.613,28.079 111.033,27.343 Q110.452,26.607 110.452,25.552 Q110.452,24.161 111.491,23.29 Q112.529,22.419 114.173,22.419 Q115.752,22.419 116.48,22.836 L116.48,24.374 Q115.564,23.654 114.1,23.654 Q113.126,23.654 112.509,24.141 Q111.891,24.627 111.891,25.429 Q111.891,26.01 112.075,26.361 Q112.259,26.713 112.697,27.057 Q113.134,27.4 114.173,27.981 Q115.727,28.848 116.349,29.617 Q116.97,30.385 116.97,31.383 z" fill="#FFFFFF"/>
    <path d="M122.512,34.262 Q122.029,34.532 121.252,34.532 Q119.06,34.532 119.06,32.062 L119.06,27.106 L117.621,27.106 L117.621,25.969 L119.06,25.969 L119.06,23.924 L120.402,23.491 L120.402,25.969 L122.512,25.969 L122.512,27.106 L120.402,27.106 L120.402,31.833 Q120.402,32.675 120.688,33.031 Q120.974,33.387 121.645,33.387 Q122.144,33.387 122.512,33.117 z" fill="#FFFFFF"/>
    <path d="M132.157,30.124 Q132.157,32.119 131.024,33.334 Q129.891,34.548 127.985,34.548 Q126.129,34.548 125.021,33.366 Q123.912,32.185 123.912,30.254 Q123.912,28.177 125.049,26.971 Q126.186,25.764 128.182,25.764 Q130.047,25.764 131.102,26.93 Q132.157,28.095 132.157,30.124 z M130.783,30.173 Q130.783,28.594 130.083,27.752 Q129.384,26.909 128.084,26.909 Q126.791,26.909 126.039,27.772 Q125.286,28.635 125.286,30.205 Q125.286,31.71 126.043,32.557 Q126.8,33.403 128.084,33.403 Q129.392,33.403 130.087,32.569 Q130.783,31.735 130.783,30.173 z" fill="#FFFFFF"/>
    <path d="M138.13,27.326 Q137.77,27.057 137.108,27.057 Q136.217,27.057 135.66,27.895 Q135.104,28.733 135.104,30.075 L135.104,34.344 L133.763,34.344 L133.763,25.969 L135.104,25.969 L135.104,27.695 L135.137,27.695 Q135.415,26.828 135.996,26.325 Q136.576,25.822 137.329,25.822 Q137.852,25.822 138.13,25.936 z" fill="#FFFFFF"/>
    <path d="M146.21,30.492 L140.297,30.492 Q140.329,31.907 141.045,32.655 Q141.761,33.403 143.028,33.403 Q144.451,33.403 145.621,32.487 L145.621,33.739 Q144.525,34.548 142.709,34.548 Q140.918,34.548 139.912,33.391 Q138.906,32.234 138.906,30.189 Q138.906,28.946 139.409,27.919 Q139.912,26.893 140.795,26.329 Q141.679,25.764 142.758,25.764 Q144.386,25.764 145.298,26.823 Q146.21,27.883 146.21,29.788 z M144.836,29.355 Q144.819,28.193 144.275,27.551 Q143.732,26.909 142.742,26.909 Q141.81,26.909 141.147,27.58 Q140.485,28.251 140.313,29.355 z" fill="#FFFFFF"/>
    <path d="M0,40 L154,40 L154,0 L0,0 z" fill="#009A56"/>
    <path d="M29.296,10.804 L7.608,15.141 L7.608,30.914 L29.296,35.25 L33.631,33.674 L33.631,12.381 z M17.084,27.651 L12.271,26.973 L12.271,22.978 L17.084,22.978 z M17.084,22.372 L12.271,22.372 L12.271,18.698 L17.084,18.018 z M23.755,28.575 L17.688,27.689 L17.688,22.978 L23.755,22.978 z M23.755,22.372 L17.688,22.372 L17.688,17.983 L23.755,17.094 z M14.312,12.85 L14.312,9.227 C14.286,6.982 15.445,6.294 17.586,5.792 C20.809,5.036 21.014,7.115 21.014,8.438 L21.014,11.508 L21.803,11.349 L21.803,8.505 C21.796,6.002 21.015,4.128 17.428,4.942 C15.496,5.38 13.524,5.872 13.524,9.152 L13.524,13.006 z M22.429,7.022 C22.482,7.265 22.524,7.531 22.551,7.814 C24.611,7.518 24.571,8.368 24.571,10.142 L24.571,10.797 L25.351,10.637 L25.351,10.142 C25.351,7.387 24.921,6.649 22.429,7.022 M20.138,7.56 C20.188,7.784 20.217,8.057 20.222,8.379 C19.072,8.875 18.629,9.232 18.649,10.937 L18.649,11.981 L17.861,12.14 L17.861,10.93 C17.861,8.418 18.822,8.022 20.138,7.56" fill="#FFFFFF"/>
    <path d="M48.363,11.467 Q48.363,12.696 47.824,13.637 Q47.285,14.577 46.291,15.086 Q45.297,15.594 44.017,15.594 L41.889,15.594 L41.889,7.541 L44.112,7.541 Q48.363,7.541 48.363,11.467 z M47.375,11.489 Q47.375,8.395 44.09,8.395 L42.832,8.395 L42.832,14.74 L44.028,14.74 Q45.623,14.74 46.499,13.889 Q47.375,13.039 47.375,11.489 z" fill="#FFFFFF"/>
    <path d="M55.062,12.696 Q55.062,14.066 54.285,14.9 Q53.507,15.734 52.199,15.734 Q50.924,15.734 50.163,14.923 Q49.402,14.111 49.402,12.786 Q49.402,11.36 50.183,10.532 Q50.963,9.703 52.333,9.703 Q53.614,9.703 54.338,10.503 Q55.062,11.304 55.062,12.696 z M54.119,12.73 Q54.119,11.646 53.639,11.068 Q53.159,10.489 52.266,10.489 Q51.379,10.489 50.862,11.082 Q50.345,11.674 50.345,12.752 Q50.345,13.786 50.865,14.367 Q51.384,14.948 52.266,14.948 Q53.164,14.948 53.642,14.375 Q54.119,13.802 54.119,12.73 z" fill="#FFFFFF"/>
    <path d="M63.625,9.844 L61.901,15.594 L60.947,15.594 L59.762,11.478 Q59.7,11.264 59.672,10.95 L59.65,10.95 Q59.633,11.146 59.532,11.467 L58.246,15.594 L57.325,15.594 L55.59,9.844 L56.556,9.844 L57.741,14.167 Q57.797,14.392 57.819,14.684 L57.864,14.684 Q57.875,14.471 57.971,14.156 L59.29,9.844 L60.133,9.844 L61.329,14.179 Q61.385,14.398 61.407,14.695 L61.452,14.695 Q61.463,14.426 61.542,14.179 L62.716,9.844 z" fill="#FFFFFF"/>
    <path d="M69.205,15.594 L68.284,15.594 L68.284,12.314 Q68.284,10.489 66.947,10.489 Q66.268,10.489 65.81,11.003 Q65.353,11.517 65.353,12.314 L65.353,15.594 L64.432,15.594 L64.432,9.844 L65.353,9.844 L65.353,10.798 L65.375,10.798 Q66.021,9.703 67.262,9.703 Q68.211,9.703 68.708,10.321 Q69.205,10.939 69.205,12.073 z" fill="#FFFFFF"/>
    <path d="M71.781,15.594 L70.86,15.594 L70.86,7.081 L71.781,7.081 z" fill="#FFFFFF"/>
    <path d="M78.821,12.696 Q78.821,14.066 78.044,14.9 Q77.266,15.734 75.958,15.734 Q74.683,15.734 73.922,14.923 Q73.161,14.111 73.161,12.786 Q73.161,11.36 73.942,10.532 Q74.722,9.703 76.092,9.703 Q77.373,9.703 78.097,10.503 Q78.821,11.304 78.821,12.696 z M77.878,12.73 Q77.878,11.646 77.398,11.068 Q76.918,10.489 76.025,10.489 Q75.138,10.489 74.621,11.082 Q74.105,11.674 74.105,12.752 Q74.105,13.786 74.624,14.367 Q75.143,14.948 76.025,14.948 Q76.924,14.948 77.401,14.375 Q77.878,13.802 77.878,12.73 z" fill="#FFFFFF"/>
    <path d="M84.304,15.594 L83.383,15.594 L83.383,14.695 L83.36,14.695 Q82.759,15.734 81.592,15.734 Q80.76,15.734 80.261,15.282 Q79.761,14.83 79.761,14.066 Q79.761,12.46 81.659,12.191 L83.383,11.949 Q83.383,10.489 82.198,10.489 Q81.159,10.489 80.322,11.191 L80.322,10.248 Q80.575,10.057 81.187,9.88 Q81.799,9.703 82.277,9.703 Q84.304,9.703 84.304,11.854 z M83.383,12.685 L81.99,12.882 Q81.277,12.983 80.991,13.221 Q80.704,13.46 80.704,13.993 Q80.704,14.426 81.013,14.687 Q81.322,14.948 81.805,14.948 Q82.49,14.948 82.936,14.465 Q83.383,13.982 83.383,13.258 z" fill="#FFFFFF"/>
    <path d="M90.902,15.594 L89.981,15.594 L89.981,14.617 L89.958,14.617 Q89.318,15.734 87.982,15.734 Q86.892,15.734 86.247,14.951 Q85.601,14.167 85.601,12.859 Q85.601,11.433 86.317,10.568 Q87.033,9.703 88.234,9.703 Q89.414,9.703 89.958,10.635 L89.981,10.635 L89.981,7.081 L90.902,7.081 z M89.981,12.994 L89.981,12.146 Q89.981,11.433 89.506,10.961 Q89.032,10.489 88.352,10.489 Q87.521,10.489 87.033,11.104 Q86.544,11.719 86.544,12.809 Q86.544,13.797 87.005,14.372 Q87.465,14.948 88.246,14.948 Q89.004,14.948 89.492,14.398 Q89.981,13.847 89.981,12.994 z" fill="#FFFFFF"/>
    <path d="M98.058,7.89 Q97.789,7.738 97.446,7.738 Q96.481,7.738 96.481,8.956 L96.481,9.844 L97.828,9.844 L97.828,10.624 L96.481,10.624 L96.481,15.594 L95.56,15.594 L95.56,10.624 L94.583,10.624 L94.583,9.844 L95.56,9.844 L95.56,8.912 Q95.56,8.036 96.076,7.497 Q96.593,6.957 97.39,6.957 Q97.811,6.957 98.058,7.059 z" fill="#FFFFFF"/>
    <path d="M101.838,10.776 Q101.591,10.591 101.136,10.591 Q100.524,10.591 100.142,11.166 Q99.761,11.742 99.761,12.663 L99.761,15.594 L98.84,15.594 L98.84,9.844 L99.761,9.844 L99.761,11.029 L99.783,11.029 Q99.974,10.433 100.373,10.088 Q100.771,9.743 101.288,9.743 Q101.647,9.743 101.838,9.821 z" fill="#FFFFFF"/>
    <path d="M107.845,12.696 Q107.845,14.066 107.068,14.9 Q106.29,15.734 104.982,15.734 Q103.707,15.734 102.946,14.923 Q102.185,14.111 102.185,12.786 Q102.185,11.36 102.966,10.532 Q103.746,9.703 105.116,9.703 Q106.397,9.703 107.121,10.503 Q107.845,11.304 107.845,12.696 z M106.902,12.73 Q106.902,11.646 106.422,11.068 Q105.942,10.489 105.049,10.489 Q104.162,10.489 103.645,11.082 Q103.129,11.674 103.129,12.752 Q103.129,13.786 103.648,14.367 Q104.167,14.948 105.049,14.948 Q105.947,14.948 106.425,14.375 Q106.902,13.802 106.902,12.73 z" fill="#FFFFFF"/>
    <path d="M117.39,15.594 L116.469,15.594 L116.469,12.292 Q116.469,11.326 116.174,10.908 Q115.88,10.489 115.183,10.489 Q114.594,10.489 114.181,11.029 Q113.768,11.568 113.768,12.314 L113.768,15.594 L112.847,15.594 L112.847,12.18 Q112.847,10.489 111.539,10.489 Q110.933,10.489 110.54,10.998 Q110.146,11.506 110.146,12.314 L110.146,15.594 L109.226,15.594 L109.226,9.844 L110.146,9.844 L110.146,10.753 L110.169,10.753 Q110.781,9.703 111.949,9.703 Q112.51,9.703 112.96,10.018 Q113.409,10.332 113.583,10.899 Q114.223,9.703 115.492,9.703 Q117.39,9.703 117.39,12.05 z" fill="#FFFFFF"/>
    <path d="M56.274,22.616 L52.962,34.344 L51.351,34.344 L48.938,25.764 Q48.799,25.282 48.758,24.578 L48.725,24.578 Q48.66,25.184 48.505,25.748 L46.076,34.344 L44.481,34.344 L41.054,22.616 L42.559,22.616 L45.053,31.612 Q45.209,32.209 45.258,32.79 L45.29,32.79 Q45.331,32.291 45.536,31.612 L48.137,22.616 L49.462,22.616 L51.94,31.678 Q52.079,32.185 52.136,32.765 L52.169,32.765 Q52.21,32.34 52.39,31.645 L54.786,22.616 z" fill="#FFFFFF"/>
    <path d="M59.087,22.967 Q59.087,23.343 58.826,23.593 Q58.564,23.842 58.204,23.842 Q57.836,23.842 57.582,23.601 Q57.329,23.36 57.329,22.967 Q57.329,22.616 57.578,22.358 Q57.828,22.1 58.204,22.1 Q58.58,22.1 58.834,22.354 Q59.087,22.607 59.087,22.967 z M58.858,34.344 L57.517,34.344 L57.517,25.969 L58.858,25.969 z" fill="#FFFFFF"/>
    <path d="M67.919,34.344 L66.578,34.344 L66.578,29.567 Q66.578,26.909 64.631,26.909 Q63.642,26.909 62.975,27.658 Q62.309,28.406 62.309,29.567 L62.309,34.344 L60.967,34.344 L60.967,25.969 L62.309,25.969 L62.309,27.359 L62.341,27.359 Q63.282,25.764 65.089,25.764 Q66.472,25.764 67.196,26.664 Q67.919,27.564 67.919,29.216 z" fill="#FFFFFF"/>
    <path d="M77.464,34.344 L76.122,34.344 L76.122,32.921 L76.09,32.921 Q75.157,34.548 73.211,34.548 Q71.624,34.548 70.684,33.407 Q69.743,32.266 69.743,30.361 Q69.743,28.283 70.786,27.024 Q71.829,25.764 73.579,25.764 Q75.296,25.764 76.09,27.122 L76.122,27.122 L76.122,21.945 L77.464,21.945 z M76.122,30.557 L76.122,29.322 Q76.122,28.283 75.431,27.596 Q74.74,26.909 73.751,26.909 Q72.54,26.909 71.829,27.805 Q71.117,28.7 71.117,30.287 Q71.117,31.727 71.788,32.565 Q72.458,33.403 73.595,33.403 Q74.699,33.403 75.411,32.602 Q76.122,31.8 76.122,30.557 z" fill="#FFFFFF"/>
    <path d="M87.283,30.124 Q87.283,32.119 86.151,33.334 Q85.018,34.548 83.112,34.548 Q81.256,34.548 80.147,33.366 Q79.039,32.185 79.039,30.254 Q79.039,28.177 80.176,26.971 Q81.313,25.764 83.309,25.764 Q85.173,25.764 86.228,26.93 Q87.283,28.095 87.283,30.124 z M85.909,30.173 Q85.909,28.594 85.21,27.752 Q84.511,26.909 83.21,26.909 Q81.918,26.909 81.166,27.772 Q80.413,28.635 80.413,30.205 Q80.413,31.71 81.17,32.557 Q81.926,33.403 83.21,33.403 Q84.519,33.403 85.214,32.569 Q85.909,31.735 85.909,30.173 z" fill="#FFFFFF"/>
    <path d="M99.356,25.969 L96.846,34.344 L95.455,34.344 L93.729,28.349 Q93.64,28.038 93.599,27.58 L93.566,27.58 Q93.541,27.866 93.394,28.332 L91.521,34.344 L90.18,34.344 L87.653,25.969 L89.059,25.969 L90.785,32.266 Q90.867,32.594 90.9,33.019 L90.965,33.019 Q90.981,32.708 91.12,32.25 L93.042,25.969 L94.269,25.969 L96.011,32.283 Q96.093,32.602 96.126,33.035 L96.191,33.035 Q96.208,32.643 96.322,32.283 L98.032,25.969 z" fill="#FFFFFF"/>
    <path d="M105.44,32.103 Q105.44,33.191 104.602,33.869 Q103.764,34.548 102.373,34.548 Q101.187,34.548 100.296,34.041 L100.296,32.602 Q101.285,33.403 102.471,33.403 Q104.066,33.403 104.066,32.234 Q104.066,31.759 103.755,31.461 Q103.445,31.162 102.341,30.655 Q101.228,30.181 100.77,29.637 Q100.312,29.093 100.312,28.193 Q100.312,27.155 101.146,26.46 Q101.981,25.764 103.265,25.764 Q104.254,25.764 105.056,26.157 L105.056,27.506 Q104.238,26.909 103.158,26.909 Q102.496,26.909 102.091,27.236 Q101.686,27.564 101.686,28.079 Q101.686,28.635 101.997,28.934 Q102.308,29.232 103.281,29.641 Q104.475,30.148 104.958,30.704 Q105.44,31.26 105.44,32.103 z" fill="#FFFFFF"/>
    <path d="M116.97,31.383 Q116.97,32.863 115.923,33.706 Q114.877,34.548 113.077,34.548 Q112.423,34.548 111.601,34.332 Q110.779,34.115 110.436,33.878 L110.436,32.25 Q110.934,32.7 111.748,33.002 Q112.562,33.305 113.265,33.305 Q115.523,33.305 115.523,31.547 Q115.523,30.811 115.04,30.283 Q114.558,29.756 113.061,28.897 Q111.613,28.079 111.033,27.343 Q110.452,26.607 110.452,25.552 Q110.452,24.161 111.491,23.29 Q112.529,22.419 114.173,22.419 Q115.752,22.419 116.48,22.836 L116.48,24.374 Q115.564,23.654 114.1,23.654 Q113.126,23.654 112.509,24.141 Q111.891,24.627 111.891,25.429 Q111.891,26.01 112.075,26.361 Q112.259,26.713 112.697,27.057 Q113.134,27.4 114.173,27.981 Q115.727,28.848 116.349,29.617 Q116.97,30.385 116.97,31.383 z" fill="#FFFFFF"/>
    <path d="M122.512,34.262 Q122.029,34.532 121.252,34.532 Q119.06,34.532 119.06,32.062 L119.06,27.106 L117.621,27.106 L117.621,25.969 L119.06,25.969 L119.06,23.924 L120.402,23.491 L120.402,25.969 L122.512,25.969 L122.512,27.106 L120.402,27.106 L120.402,31.833 Q120.402,32.675 120.688,33.031 Q120.974,33.387 121.645,33.387 Q122.144,33.387 122.512,33.117 z" fill="#FFFFFF"/>
    <path d="M132.157,30.124 Q132.157,32.119 131.024,33.334 Q129.891,34.548 127.985,34.548 Q126.129,34.548 125.021,33.366 Q123.912,32.185 123.912,30.254 Q123.912,28.177 125.049,26.971 Q126.186,25.764 128.182,25.764 Q130.047,25.764 131.102,26.93 Q132.157,28.095 132.157,30.124 z M130.783,30.173 Q130.783,28.594 130.083,27.752 Q129.384,26.909 128.084,26.909 Q126.791,26.909 126.039,27.772 Q125.286,28.635 125.286,30.205 Q125.286,31.71 126.043,32.557 Q126.8,33.403 128.084,33.403 Q129.392,33.403 130.087,32.569 Q130.783,31.735 130.783,30.173 z" fill="#FFFFFF"/>
    <path d="M138.13,27.326 Q137.77,27.057 137.108,27.057 Q136.217,27.057 135.66,27.895 Q135.104,28.733 135.104,30.075 L135.104,34.344 L133.763,34.344 L133.763,25.969 L135.104,25.969 L135.104,27.695 L135.137,27.695 Q135.415,26.828 135.996,26.325 Q136.576,25.822 137.329,25.822 Q137.852,25.822 138.13,25.936 z" fill="#FFFFFF"/>
    <path d="M146.21,30.492 L140.297,30.492 Q140.329,31.907 141.045,32.655 Q141.761,33.403 143.028,33.403 Q144.451,33.403 145.621,32.487 L145.621,33.739 Q144.525,34.548 142.709,34.548 Q140.918,34.548 139.912,33.391 Q138.906,32.234 138.906,30.189 Q138.906,28.946 139.409,27.919 Q139.912,26.893 140.795,26.329 Q141.679,25.764 142.758,25.764 Q144.386,25.764 145.298,26.823 Q146.21,27.883 146.21,29.788 z M144.836,29.355 Q144.819,28.193 144.275,27.551 Q143.732,26.909 142.742,26.909 Q141.81,26.909 141.147,27.58 Q140.485,28.251 140.313,29.355 z" fill="#FFFFFF"/>
    <path d="M0,40 L154,40 L154,0 L0,0 z" fill="#000000"/>
    <path d="M29.296,10.804 L7.608,15.141 L7.608,30.914 L29.296,35.25 L33.631,33.674 L33.631,12.381 z M17.084,27.651 L12.271,26.973 L12.271,22.978 L17.084,22.978 z M17.084,22.372 L12.271,22.372 L12.271,18.698 L17.084,18.018 z M23.755,28.575 L17.688,27.689 L17.688,22.978 L23.755,22.978 z M23.755,22.372 L17.688,22.372 L17.688,17.983 L23.755,17.094 z M14.312,12.85 L14.312,9.227 C14.286,6.982 15.445,6.294 17.586,5.792 C20.809,5.036 21.014,7.115 21.014,8.438 L21.014,11.508 L21.803,11.349 L21.803,8.505 C21.796,6.002 21.015,4.128 17.428,4.942 C15.496,5.38 13.524,5.872 13.524,9.152 L13.524,13.006 z M22.429,7.022 C22.482,7.265 22.524,7.531 22.551,7.814 C24.611,7.518 24.571,8.368 24.571,10.142 L24.571,10.797 L25.351,10.637 L25.351,10.142 C25.351,7.387 24.921,6.649 22.429,7.022 M20.138,7.56 C20.188,7.784 20.217,8.057 20.222,8.379 C19.072,8.875 18.629,9.232 18.649,10.937 L18.649,11.981 L17.861,12.14 L17.861,10.93 C17.861,8.418 18.822,8.022 20.138,7.56" fill="#FFFFFF"/>
    <path d="M117.115,15.453 L116.208,15.453 L116.208,12.202 C116.208,11.568 116.112,11.114 115.918,10.84 C115.724,10.565 115.399,10.428 114.942,10.428 C114.555,10.428 114.226,10.604 113.955,10.959 C113.685,11.312 113.549,11.734 113.549,12.224 L113.549,15.453 L112.642,15.453 L112.642,12.092 C112.642,10.982 112.213,10.428 111.354,10.428 C110.956,10.428 110.628,10.595 110.37,10.928 C110.112,11.262 109.983,11.693 109.983,12.224 L109.983,15.453 L109.076,15.453 L109.076,9.792 L109.983,9.792 L109.983,10.687 L110.006,10.687 C110.407,9.998 110.991,9.654 111.758,9.654 C112.126,9.654 112.458,9.757 112.753,9.964 C113.048,10.17 113.252,10.459 113.367,10.831 C113.787,10.046 114.413,9.654 115.246,9.654 C116.492,9.654 117.115,10.424 117.115,11.965 z M106.744,12.634 C106.744,11.923 106.586,11.377 106.271,10.997 C105.956,10.617 105.506,10.428 104.92,10.428 C104.337,10.428 103.876,10.622 103.537,11.011 C103.198,11.4 103.029,11.948 103.029,12.655 C103.029,13.334 103.199,13.863 103.54,14.245 C103.881,14.627 104.341,14.817 104.92,14.817 C105.509,14.817 105.961,14.629 106.274,14.254 C106.587,13.878 106.744,13.338 106.744,12.634 M107.673,12.6 C107.673,13.5 107.417,14.223 106.907,14.77 C106.396,15.317 105.712,15.592 104.853,15.592 C104.016,15.592 103.348,15.325 102.849,14.792 C102.35,14.26 102.1,13.558 102.1,12.688 C102.1,11.753 102.356,11.013 102.868,10.47 C103.381,9.926 104.087,9.654 104.986,9.654 C105.826,9.654 106.484,9.916 106.96,10.441 C107.435,10.967 107.673,11.686 107.673,12.6 M101.689,10.71 C101.526,10.588 101.296,10.527 100.997,10.527 C100.595,10.527 100.269,10.716 100.019,11.094 C99.768,11.472 99.643,11.963 99.643,12.567 L99.643,15.453 L98.736,15.453 L98.736,9.792 L99.643,9.792 L99.643,10.959 L99.665,10.959 C99.79,10.568 99.984,10.259 100.245,10.032 C100.507,9.806 100.807,9.692 101.147,9.692 C101.383,9.692 101.563,9.719 101.689,9.769 z M97.99,7.868 C97.813,7.768 97.613,7.719 97.387,7.719 C96.754,7.719 96.437,8.119 96.437,8.919 L96.437,9.792 L97.763,9.792 L97.763,10.56 L96.437,10.56 L96.437,15.453 L95.53,15.453 L95.53,10.56 L94.568,10.56 L94.568,9.792 L95.53,9.792 L95.53,8.874 C95.53,8.3 95.699,7.835 96.039,7.481 C96.378,7.127 96.809,6.95 97.332,6.95 C97.609,6.95 97.828,6.983 97.99,7.05 z M89.814,12.893 L89.814,12.058 C89.814,11.591 89.658,11.202 89.346,10.892 C89.035,10.583 88.656,10.428 88.21,10.428 C87.665,10.428 87.232,10.63 86.911,11.033 C86.591,11.436 86.43,11.996 86.43,12.711 C86.43,13.359 86.581,13.873 86.884,14.251 C87.186,14.629 87.593,14.817 88.105,14.817 C88.603,14.817 89.012,14.637 89.333,14.275 C89.653,13.914 89.814,13.454 89.814,12.893 M90.72,15.453 L89.814,15.453 L89.814,14.491 L89.791,14.491 C89.371,15.224 88.722,15.592 87.845,15.592 C87.131,15.592 86.561,15.334 86.137,14.82 C85.713,14.306 85.501,13.619 85.501,12.761 C85.501,11.824 85.737,11.073 86.206,10.505 C86.676,9.937 87.305,9.654 88.094,9.654 C88.868,9.654 89.434,9.96 89.791,10.571 L89.814,10.571 L89.814,7.072 L90.72,7.072 z M83.318,12.59 L81.947,12.783 C81.479,12.849 81.151,12.961 80.963,13.117 C80.775,13.274 80.681,13.527 80.681,13.878 C80.681,14.161 80.782,14.389 80.985,14.56 C81.187,14.731 81.447,14.817 81.764,14.817 C82.214,14.817 82.585,14.659 82.878,14.342 C83.171,14.025 83.318,13.629 83.318,13.153 z M84.224,15.453 L83.318,15.453 L83.318,14.568 L83.296,14.568 C82.901,15.25 82.321,15.592 81.554,15.592 C81.009,15.592 80.572,15.443 80.244,15.146 C79.916,14.849 79.752,14.45 79.752,13.949 C79.752,12.895 80.375,12.28 81.62,12.102 L83.318,11.865 C83.318,10.907 82.929,10.428 82.151,10.428 C81.469,10.428 80.854,10.658 80.305,11.119 L80.305,10.19 C80.47,10.064 80.754,9.944 81.156,9.828 C81.558,9.712 81.915,9.654 82.229,9.654 C83.559,9.654 84.224,10.359 84.224,11.771 z M77.883,12.634 C77.883,11.923 77.725,11.377 77.41,10.997 C77.095,10.617 76.645,10.428 76.059,10.428 C75.476,10.428 75.015,10.622 74.677,11.011 C74.338,11.4 74.168,11.948 74.168,12.655 C74.168,13.334 74.339,13.863 74.679,14.245 C75.02,14.627 75.48,14.817 76.059,14.817 C76.648,14.817 77.1,14.629 77.413,14.254 C77.726,13.878 77.883,13.338 77.883,12.634 M78.812,12.6 C78.812,13.5 78.556,14.223 78.046,14.77 C77.535,15.317 76.851,15.592 75.992,15.592 C75.156,15.592 74.488,15.325 73.989,14.792 C73.489,14.26 73.239,13.558 73.239,12.688 C73.239,11.753 73.495,11.013 74.008,10.47 C74.52,9.926 75.226,9.654 76.125,9.654 C76.966,9.654 77.623,9.916 78.099,10.441 C78.574,10.967 78.812,11.686 78.812,12.6 M71.835,15.453 L70.928,15.453 L70.928,7.072 L71.835,7.072 z M69.22,15.453 L68.314,15.453 L68.314,12.224 C68.314,11.026 67.875,10.428 66.998,10.428 C66.552,10.428 66.178,10.597 65.878,10.933 C65.578,11.27 65.427,11.701 65.427,12.224 L65.427,15.453 L64.521,15.453 L64.521,9.792 L65.427,9.792 L65.427,10.731 L65.45,10.731 C65.874,10.013 66.493,9.654 67.307,9.654 C67.93,9.654 68.405,9.856 68.731,10.262 C69.057,10.667 69.22,11.242 69.22,11.986 z M63.465,9.792 L61.768,15.453 L60.828,15.453 L59.661,11.4 C59.621,11.261 59.592,11.088 59.573,10.881 L59.551,10.881 C59.54,11.01 59.501,11.18 59.435,11.39 L58.169,15.453 L57.262,15.453 L55.554,9.792 L56.505,9.792 L57.671,14.049 C57.708,14.196 57.734,14.366 57.749,14.557 L57.793,14.557 C57.801,14.418 57.835,14.244 57.898,14.038 L59.197,9.792 L60.027,9.792 L61.204,14.059 C61.241,14.204 61.267,14.373 61.282,14.568 L61.325,14.568 C61.333,14.391 61.363,14.223 61.414,14.059 L62.57,9.792 z M54.001,12.634 C54.001,11.923 53.843,11.377 53.528,10.997 C53.213,10.617 52.762,10.428 52.177,10.428 C51.594,10.428 51.133,10.622 50.794,11.011 C50.455,11.4 50.285,11.948 50.285,12.655 C50.285,13.334 50.456,13.863 50.797,14.245 C51.138,14.627 51.598,14.817 52.177,14.817 C52.766,14.817 53.218,14.629 53.531,14.254 C53.844,13.878 54.001,13.338 54.001,12.634 M54.929,12.6 C54.929,13.5 54.674,14.223 54.164,14.77 C53.653,15.317 52.969,15.592 52.11,15.592 C51.273,15.592 50.605,15.325 50.106,14.792 C49.607,14.26 49.357,13.558 49.357,12.688 C49.357,11.753 49.613,11.013 50.125,10.47 C50.637,9.926 51.344,9.654 52.243,9.654 C53.083,9.654 53.741,9.916 54.217,10.441 C54.692,10.967 54.929,11.686 54.929,12.6 M47.372,11.412 C47.372,9.381 46.294,8.365 44.138,8.365 L42.9,8.365 L42.9,14.613 L44.077,14.613 C45.124,14.613 45.935,14.334 46.51,13.775 C47.085,13.217 47.372,12.429 47.372,11.412 M48.345,11.39 C48.345,12.197 48.168,12.909 47.814,13.526 C47.461,14.143 46.957,14.619 46.305,14.953 C45.653,15.286 44.907,15.453 44.066,15.453 L41.971,15.453 L41.971,7.525 L44.16,7.525 C46.95,7.525 48.345,8.813 48.345,11.39" fill="#FFFFFF"/>
    <path d="M105.354,30.094 C105.354,30.824 105.073,31.417 104.51,31.873 C103.948,32.328 103.2,32.557 102.268,32.557 C101.471,32.557 100.774,32.386 100.176,32.046 L100.176,30.596 C100.839,31.135 101.57,31.404 102.366,31.404 C103.435,31.404 103.972,31.012 103.972,30.227 C103.972,29.908 103.868,29.649 103.659,29.448 C103.45,29.248 102.975,28.978 102.234,28.637 C101.488,28.319 100.96,27.978 100.653,27.613 C100.345,27.247 100.192,26.762 100.192,26.158 C100.192,25.462 100.472,24.88 101.032,24.412 C101.591,23.947 102.303,23.714 103.165,23.714 C103.829,23.714 104.429,23.845 104.968,24.11 L104.968,25.467 C104.418,25.067 103.783,24.865 103.058,24.865 C102.612,24.865 102.255,24.976 101.983,25.196 C101.71,25.415 101.575,25.698 101.575,26.044 C101.575,26.417 101.68,26.703 101.888,26.905 C102.097,27.104 102.528,27.342 103.181,27.615 C103.982,27.957 104.545,28.313 104.868,28.687 C105.192,29.06 105.354,29.53 105.354,30.094 M99.601,23.919 L97.073,32.351 L95.673,32.351 L93.937,26.316 C93.876,26.107 93.832,25.849 93.805,25.542 L93.771,25.542 C93.754,25.735 93.698,25.986 93.599,26.299 L91.713,32.351 L90.363,32.351 L87.818,23.919 L89.235,23.919 L90.971,30.259 C91.026,30.479 91.065,30.733 91.087,31.017 L91.153,31.017 C91.163,30.809 91.215,30.551 91.309,30.242 L93.245,23.919 L94.48,23.919 L96.233,30.276 C96.287,30.49 96.327,30.742 96.348,31.033 L96.413,31.033 C96.426,30.77 96.469,30.517 96.546,30.276 L98.267,23.919 z M85.926,28.152 C85.926,27.092 85.691,26.281 85.222,25.714 C84.752,25.149 84.082,24.865 83.208,24.865 C82.341,24.865 81.655,25.156 81.151,25.735 C80.646,26.314 80.393,27.13 80.393,28.184 C80.393,29.195 80.647,29.983 81.155,30.551 C81.662,31.119 82.347,31.404 83.208,31.404 C84.086,31.404 84.76,31.124 85.226,30.565 C85.693,30.004 85.926,29.199 85.926,28.152 M87.31,28.102 C87.31,29.442 86.93,30.519 86.168,31.334 C85.409,32.15 84.389,32.557 83.11,32.557 C81.865,32.557 80.869,32.16 80.125,31.367 C79.381,30.573 79.01,29.53 79.01,28.234 C79.01,26.84 79.392,25.738 80.155,24.928 C80.917,24.118 81.968,23.714 83.308,23.714 C84.559,23.714 85.538,24.105 86.247,24.887 C86.955,25.669 87.31,26.74 87.31,28.102 M75.989,28.538 L75.989,27.295 C75.989,26.598 75.757,26.02 75.293,25.557 C74.829,25.096 74.266,24.865 73.602,24.865 C72.79,24.865 72.145,25.166 71.667,25.768 C71.19,26.368 70.95,27.201 70.95,28.267 C70.95,29.233 71.176,29.996 71.626,30.56 C72.076,31.123 72.682,31.404 73.446,31.404 C74.186,31.404 74.796,31.135 75.273,30.596 C75.751,30.059 75.989,29.373 75.989,28.538 M77.339,32.351 L75.989,32.351 L75.989,30.918 L75.957,30.918 C75.33,32.011 74.365,32.557 73.059,32.557 C71.993,32.557 71.145,32.174 70.514,31.408 C69.883,30.642 69.568,29.62 69.568,28.342 C69.568,26.948 69.917,25.827 70.618,24.982 C71.317,24.137 72.254,23.714 73.429,23.714 C74.581,23.714 75.425,24.169 75.957,25.08 L75.989,25.08 L75.989,19.867 L77.339,19.867 z M67.969,32.351 L66.618,32.351 L66.618,27.542 C66.618,25.758 65.965,24.865 64.66,24.865 C63.995,24.865 63.439,25.117 62.992,25.619 C62.543,26.121 62.32,26.762 62.32,27.542 L62.32,32.351 L60.971,32.351 L60.971,23.919 L62.32,23.919 L62.32,25.319 L62.353,25.319 C62.985,24.249 63.906,23.714 65.12,23.714 C66.048,23.714 66.754,24.016 67.24,24.619 C67.726,25.223 67.969,26.079 67.969,27.188 z M58.926,32.351 L57.575,32.351 L57.575,23.919 L58.926,23.919 z M59.157,21.146 C59.157,21.399 59.069,21.609 58.893,21.775 C58.717,21.943 58.51,22.027 58.267,22.027 C58.02,22.027 57.812,21.946 57.642,21.784 C57.471,21.621 57.386,21.408 57.386,21.146 C57.386,20.91 57.471,20.705 57.638,20.531 C57.805,20.36 58.015,20.272 58.267,20.272 C58.52,20.272 58.731,20.358 58.902,20.529 C59.071,20.698 59.157,20.904 59.157,21.146 M56.478,20.543 L53.142,32.351 L51.521,32.351 L49.09,23.714 C48.997,23.39 48.938,22.991 48.91,22.52 L48.877,22.52 C48.834,22.925 48.759,23.319 48.656,23.698 L46.209,32.351 L44.604,32.351 L41.154,20.543 L42.668,20.543 L45.18,29.601 C45.285,30.001 45.352,30.397 45.386,30.786 L45.419,30.786 C45.445,30.451 45.529,30.057 45.666,29.601 L48.285,20.543 L49.618,20.543 L52.113,29.666 C52.207,30.007 52.273,30.372 52.31,30.761 L52.343,30.761 C52.37,30.476 52.445,30.101 52.566,29.634 L54.979,20.543 z" fill="#FFFFFF"/>
    <path d="M144.826,27.328 C144.815,26.549 144.627,25.944 144.262,25.513 C143.897,25.082 143.382,24.866 142.718,24.866 C142.092,24.866 141.556,25.092 141.112,25.542 C140.667,25.992 140.388,26.588 140.272,27.328 z M146.209,28.474 L140.256,28.474 C140.278,29.423 140.529,30.148 141.009,30.651 C141.49,31.153 142.155,31.404 143.006,31.404 C143.961,31.404 144.831,31.098 145.616,30.482 L145.616,31.742 C144.881,32.286 143.904,32.557 142.685,32.557 C141.483,32.557 140.544,32.169 139.868,31.392 C139.193,30.615 138.856,29.541 138.856,28.169 C138.856,27.334 139.025,26.572 139.362,25.884 C139.7,25.194 140.165,24.66 140.758,24.282 C141.351,23.903 142.01,23.714 142.734,23.714 C143.826,23.714 144.679,24.069 145.291,24.78 C145.903,25.491 146.209,26.486 146.209,27.765 z M138.075,25.286 C137.833,25.105 137.49,25.015 137.045,25.015 C136.447,25.015 135.961,25.296 135.588,25.858 C135.214,26.422 135.028,27.153 135.028,28.053 L135.028,32.351 L133.677,32.351 L133.677,23.92 L135.028,23.92 L135.028,25.657 L135.061,25.657 C135.247,25.075 135.535,24.615 135.925,24.277 C136.315,23.94 136.763,23.771 137.267,23.771 C137.619,23.771 137.888,23.809 138.075,23.887 z M130.877,28.152 C130.877,27.093 130.642,26.28 130.173,25.715 C129.704,25.149 129.033,24.866 128.16,24.866 C127.292,24.866 126.606,25.156 126.101,25.735 C125.596,26.314 125.344,27.131 125.344,28.184 C125.344,29.195 125.597,29.984 126.105,30.553 C126.613,31.12 127.298,31.404 128.16,31.404 C129.037,31.404 129.711,31.125 130.177,30.564 C130.644,30.005 130.877,29.2 130.877,28.152 M132.261,28.102 C132.261,29.442 131.88,30.519 131.12,31.335 C130.36,32.149 129.34,32.557 128.061,32.557 C126.815,32.557 125.82,32.161 125.076,31.367 C124.332,30.574 123.96,29.53 123.96,28.234 C123.96,26.84 124.342,25.738 125.105,24.929 C125.868,24.118 126.919,23.714 128.259,23.714 C129.51,23.714 130.49,24.104 131.199,24.887 C131.907,25.669 132.261,26.741 132.261,28.102 M122.951,32.269 C122.627,32.45 122.204,32.541 121.683,32.541 C120.212,32.541 119.476,31.712 119.476,30.054 L119.476,25.064 L118.027,25.064 L118.027,23.92 L119.476,23.92 L119.476,21.861 L120.826,21.425 L120.826,23.92 L122.951,23.92 L122.951,25.064 L120.826,25.064 L120.826,29.823 C120.826,30.389 120.923,30.791 121.115,31.03 C121.307,31.268 121.628,31.388 122.078,31.388 C122.412,31.388 122.704,31.298 122.951,31.116 z M117.371,29.371 C117.371,30.364 117.02,31.143 116.317,31.709 C115.615,32.274 114.659,32.557 113.452,32.557 C113.013,32.557 112.517,32.484 111.966,32.339 C111.413,32.193 111.023,32.041 110.792,31.882 L110.792,30.243 C111.127,30.546 111.567,30.798 112.114,31.001 C112.66,31.204 113.169,31.306 113.641,31.306 C115.157,31.306 115.913,30.716 115.913,29.535 C115.913,29.041 115.752,28.617 115.428,28.263 C115.104,27.909 114.44,27.443 113.435,26.867 C112.464,26.318 111.783,25.797 111.393,25.303 C111.003,24.808 110.808,24.208 110.808,23.5 C110.808,22.566 111.157,21.807 111.854,21.223 C112.552,20.638 113.452,20.346 114.555,20.346 C115.615,20.346 116.389,20.485 116.877,20.766 L116.877,22.313 C116.263,21.831 115.464,21.589 114.481,21.589 C113.828,21.589 113.294,21.753 112.88,22.079 C112.465,22.406 112.258,22.838 112.258,23.376 C112.258,23.765 112.32,24.079 112.443,24.314 C112.567,24.551 112.775,24.784 113.069,25.015 C113.363,25.245 113.858,25.556 114.555,25.945 C115.598,26.527 116.328,27.076 116.745,27.592 C117.162,28.108 117.371,28.701 117.371,29.371" fill="#FFFFFF"/>
  </g>
</svg>
